<svg height="2452.5" viewBox="-15 52.5 1117.5 2572.5" width="997.5" xmlns="http://www.w3.org/2000/svg">
<style>
.species { font: italic 12px serif; fill: orange; }
</style>
<style>
.gene_0 { font: 10px serif; fill:rgb(26, 138, 178); }
</style>
<g transform="translate(  -15 2505) rotate(-90 0 0 ) ">
<path d="M443.90625,115.5 L443.90625,52.5 L1274.9773,52.5 M458.90625,115.5 L458.90625,67.5 L1285.4773,67.5" fill="none" opacity="0.9" stroke="pink" stroke-width="6"/>
<path d="M257.8125,175.5 L257.8125,112.5 L440.90625,112.5 M272.8125,175.5 L272.8125,127.5 L451.40625,127.5" fill="none" opacity="0.9" stroke="pink" stroke-width="6"/>
<path d="M67.5,220.5 L67.5,172.5 L254.8125,172.5 M97.5,220.5 L97.5,187.5 L265.3125,187.5" fill="none" opacity="0.9" stroke="pink" stroke-width="6"/>
<path d="M-15,903 L-15,217.5 L64.5,217.5 M15,903 L15,262.5 L82.5,262.5" fill="none" opacity="0.9" stroke="pink" stroke-width="6"/>
<path d="M-15,900 L-15,930 L15,930 L15,900" fill="none" opacity="0.9" stroke="pink" stroke-width="6"/>
<text class="species" transform="rotate(90 0,915)" x="-15" y="890">
BCUMA
</text>
<path d="M180,288 L180,217.5 L100.5,217.5 M150,288 L150,262.5 L82.5,262.5" fill="none" opacity="0.9" stroke="pink" stroke-width="6"/>
<path d="M90,903 L90,285 L147,285 M120,903 L120,315 L165,315" fill="none" opacity="0.9" stroke="pink" stroke-width="6"/>
<path d="M90,900 L90,930 L120,930 L120,900" fill="none" opacity="0.9" stroke="pink" stroke-width="6"/>
<text class="species" transform="rotate(90 105,915)" x="90" y="890">
BKOCA
</text>
<path d="M240,903 L240,285 L183,285 M210,903 L210,315 L165,315" fill="none" opacity="0.9" stroke="pink" stroke-width="6"/>
<path d="M210,900 L210,930 L240,930 L240,900" fill="none" opacity="0.9" stroke="pink" stroke-width="6"/>
<text class="species" transform="rotate(90 225,915)" x="210" y="890">
BLAFE
</text>
<path d="M455.625,235.5 L455.625,172.5 L275.8125,172.5 M440.625,235.5 L440.625,187.5 L265.3125,187.5" fill="none" opacity="0.9" stroke="pink" stroke-width="6"/>
<path d="M356.25,295.5 L356.25,232.5 L437.625,232.5 M371.25,295.5 L371.25,247.5 L448.125,247.5" fill="none" opacity="0.9" stroke="pink" stroke-width="6"/>
<path d="M300,910.5 L300,292.5 L353.25,292.5 M315,910.5 L315,307.5 L363.75,307.5" fill="none" opacity="0.9" stroke="pink" stroke-width="6"/>
<path d="M300,907.5 L300,922.5 L315,922.5 L315,907.5" fill="none" opacity="0.9" stroke="pink" stroke-width="6"/>
<text class="species" transform="rotate(90 307.5,915)" x="292.5" y="897.5">
BPSPA
</text>
<path d="M427.5,355.5 L427.5,292.5 L374.25,292.5 M412.5,355.5 L412.5,307.5 L363.75,307.5" fill="none" opacity="0.9" stroke="pink" stroke-width="6"/>
<path d="M382.5,910.5 L382.5,352.5 L409.5,352.5 M397.5,910.5 L397.5,367.5 L420,367.5" fill="none" opacity="0.9" stroke="pink" stroke-width="6"/>
<path d="M382.5,907.5 L382.5,922.5 L397.5,922.5 L397.5,907.5" fill="none" opacity="0.9" stroke="pink" stroke-width="6"/>
<text class="species" transform="rotate(90 390,915)" x="375" y="897.5">
BSPPA
</text>
<path d="M457.5,910.5 L457.5,352.5 L430.5,352.5 M442.5,910.5 L442.5,367.5 L420,367.5" fill="none" opacity="0.9" stroke="pink" stroke-width="6"/>
<path d="M442.5,907.5 L442.5,922.5 L457.5,922.5 L457.5,907.5" fill="none" opacity="0.9" stroke="pink" stroke-width="6"/>
<text class="species" transform="rotate(90 450,915)" x="435" y="897.5">
BSPPS
</text>
<path d="M540,910.5 L540,232.5 L458.625,232.5 M525,910.5 L525,247.5 L448.125,247.5" fill="none" opacity="0.9" stroke="pink" stroke-width="6"/>
<path d="M525,907.5 L525,922.5 L540,922.5 L540,907.5" fill="none" opacity="0.9" stroke="pink" stroke-width="6"/>
<text class="species" transform="rotate(90 532.5,915)" x="517.5" y="897.5">
BPSTX
</text>
<path d="M660,160.5 L660,112.5 L461.90625,112.5 M615,160.5 L615,127.5 L451.40625,127.5" fill="none" opacity="0.9" stroke="pink" stroke-width="6"/>
<path d="M600,910.5 L600,157.5 L612,157.5 M615,910.5 L615,202.5 L637.5,202.5" fill="none" opacity="0.9" stroke="pink" stroke-width="6"/>
<path d="M600,907.5 L600,922.5 L615,922.5 L615,907.5" fill="none" opacity="0.9" stroke="pink" stroke-width="6"/>
<text class="species" transform="rotate(90 607.5,915)" x="592.5" y="897.5">
BCURT
</text>
<path d="M675,910.5 L675,157.5 L663,157.5 M660,910.5 L660,202.5 L637.5,202.5" fill="none" opacity="0.9" stroke="pink" stroke-width="6"/>
<path d="M660,907.5 L660,922.5 L675,922.5 L675,907.5" fill="none" opacity="0.9" stroke="pink" stroke-width="6"/>
<text class="species" transform="rotate(90 667.5,915)" x="652.5" y="897.5">
BCURV
</text>
<path d="M2127.0483,115.5 L2127.0483,52.5 L1295.9773,52.5 M2112.0483,115.5 L2112.0483,67.5 L1285.4773,67.5" fill="none" opacity="0.9" stroke="pink" stroke-width="6"/>
<path d="M1884.0967,168 L1884.0967,112.5 L2109.0483,112.5 M1914.0967,168 L1914.0967,127.5 L2119.5483,127.5" fill="none" opacity="0.9" stroke="pink" stroke-width="6"/>
<path d="M1593.1934,235.5 L1593.1934,165 L1881.0967,165 M1608.1934,235.5 L1608.1934,195 L1899.0967,195" fill="none" opacity="0.9" stroke="pink" stroke-width="6"/>
<path d="M1183.8867,295.5 L1183.8867,232.5 L1590.1934,232.5 M1198.8867,295.5 L1198.8867,247.5 L1600.6934,247.5" fill="none" opacity="0.9" stroke="pink" stroke-width="6"/>
<path d="M757.5,910.5 L757.5,292.5 L1180.8867,292.5 M772.5,910.5 L772.5,307.5 L1191.3867,307.5" fill="none" opacity="0.9" stroke="pink" stroke-width="6"/>
<path d="M757.5,907.5 L757.5,922.5 L772.5,922.5 L772.5,907.5" fill="none" opacity="0.9" stroke="pink" stroke-width="6"/>
<text class="species" transform="rotate(90 765,915)" x="750" y="897.5">
Escherichia_coli_K12_MG1655
</text>
<path d="M1632.7734,340.5 L1632.7734,292.5 L1201.8867,292.5 M1602.7734,340.5 L1602.7734,307.5 L1191.3867,307.5" fill="none" opacity="0.9" stroke="pink" stroke-width="6"/>
<path d="M1488.0469,408 L1488.0469,337.5 L1599.7734,337.5 M1518.0469,408 L1518.0469,382.5 L1617.7734,382.5" fill="none" opacity="0.9" stroke="pink" stroke-width="6"/>
<path d="M1371.0938,468 L1371.0938,405 L1485.0469,405 M1401.0938,468 L1401.0938,435 L1503.0469,435" fill="none" opacity="0.9" stroke="pink" stroke-width="6"/>
<path d="M1272.1875,535.5 L1272.1875,465 L1368.0938,465 M1287.1875,535.5 L1287.1875,495 L1386.0938,495" fill="none" opacity="0.9" stroke="pink" stroke-width="6"/>
<path d="M1156.875,595.5 L1156.875,532.5 L1269.1875,532.5 M1171.875,595.5 L1171.875,547.5 L1279.6875,547.5" fill="none" opacity="0.9" stroke="pink" stroke-width="6"/>
<path d="M1016.25,655.5 L1016.25,592.5 L1153.875,592.5 M1031.25,655.5 L1031.25,607.5 L1164.375,607.5" fill="none" opacity="0.9" stroke="pink" stroke-width="6"/>
<path d="M892.5,715.5 L892.5,652.5 L1013.25,652.5 M907.5,715.5 L907.5,667.5 L1023.75,667.5" fill="none" opacity="0.9" stroke="pink" stroke-width="6"/>
<path d="M847.5,910.5 L847.5,712.5 L889.5,712.5 M862.5,910.5 L862.5,727.5 L900,727.5" fill="none" opacity="0.9" stroke="pink" stroke-width="6"/>
<path d="M847.5,907.5 L847.5,922.5 L862.5,922.5 L862.5,907.5" fill="none" opacity="0.9" stroke="pink" stroke-width="6"/>
<text class="species" transform="rotate(90 855,915)" x="840" y="897.5">
ECUMA
</text>
<path d="M952.5,775.5 L952.5,712.5 L910.5,712.5 M937.5,775.5 L937.5,727.5 L900,727.5" fill="none" opacity="0.9" stroke="pink" stroke-width="6"/>
<path d="M907.5,910.5 L907.5,772.5 L934.5,772.5 M922.5,910.5 L922.5,787.5 L945,787.5" fill="none" opacity="0.9" stroke="pink" stroke-width="6"/>
<path d="M907.5,907.5 L907.5,922.5 L922.5,922.5 L922.5,907.5" fill="none" opacity="0.9" stroke="pink" stroke-width="6"/>
<text class="species" transform="rotate(90 915,915)" x="900" y="897.5">
EKOCA
</text>
<path d="M982.5,910.5 L982.5,772.5 L955.5,772.5 M967.5,910.5 L967.5,787.5 L945,787.5" fill="none" opacity="0.9" stroke="pink" stroke-width="6"/>
<path d="M967.5,907.5 L967.5,922.5 L982.5,922.5 L982.5,907.5" fill="none" opacity="0.9" stroke="pink" stroke-width="6"/>
<text class="species" transform="rotate(90 975,915)" x="960" y="897.5">
ELAFE
</text>
<path d="M1155,715.5 L1155,652.5 L1034.25,652.5 M1140,715.5 L1140,667.5 L1023.75,667.5" fill="none" opacity="0.9" stroke="pink" stroke-width="6"/>
<path d="M1072.5,775.5 L1072.5,712.5 L1137,712.5 M1087.5,775.5 L1087.5,727.5 L1147.5,727.5" fill="none" opacity="0.9" stroke="pink" stroke-width="6"/>
<path d="M1027.5,910.5 L1027.5,772.5 L1069.5,772.5 M1042.5,910.5 L1042.5,787.5 L1080,787.5" fill="none" opacity="0.9" stroke="pink" stroke-width="6"/>
<path d="M1027.5,907.5 L1027.5,922.5 L1042.5,922.5 L1042.5,907.5" fill="none" opacity="0.9" stroke="pink" stroke-width="6"/>
<text class="species" transform="rotate(90 1035,915)" x="1020" y="897.5">
EPSPA
</text>
<path d="M1132.5,835.5 L1132.5,772.5 L1090.5,772.5 M1117.5,835.5 L1117.5,787.5 L1080,787.5" fill="none" opacity="0.9" stroke="pink" stroke-width="6"/>
<path d="M1087.5,910.5 L1087.5,832.5 L1114.5,832.5 M1102.5,910.5 L1102.5,847.5 L1125,847.5" fill="none" opacity="0.9" stroke="pink" stroke-width="6"/>
<path d="M1087.5,907.5 L1087.5,922.5 L1102.5,922.5 L1102.5,907.5" fill="none" opacity="0.9" stroke="pink" stroke-width="6"/>
<text class="species" transform="rotate(90 1095,915)" x="1080" y="897.5">
ESPPA
</text>
<path d="M1162.5,910.5 L1162.5,832.5 L1135.5,832.5 M1147.5,910.5 L1147.5,847.5 L1125,847.5" fill="none" opacity="0.9" stroke="pink" stroke-width="6"/>
<path d="M1147.5,907.5 L1147.5,922.5 L1162.5,922.5 L1162.5,907.5" fill="none" opacity="0.9" stroke="pink" stroke-width="6"/>
<text class="species" transform="rotate(90 1155,915)" x="1140" y="897.5">
ESPPS
</text>
<path d="M1222.5,910.5 L1222.5,712.5 L1158,712.5 M1207.5,910.5 L1207.5,727.5 L1147.5,727.5" fill="none" opacity="0.9" stroke="pink" stroke-width="6"/>
<path d="M1207.5,907.5 L1207.5,922.5 L1222.5,922.5 L1222.5,907.5" fill="none" opacity="0.9" stroke="pink" stroke-width="6"/>
<text class="species" transform="rotate(90 1215,915)" x="1200" y="897.5">
EPSTX
</text>
<path d="M1312.5,655.5 L1312.5,592.5 L1174.875,592.5 M1297.5,655.5 L1297.5,607.5 L1164.375,607.5" fill="none" opacity="0.9" stroke="pink" stroke-width="6"/>
<path d="M1267.5,910.5 L1267.5,652.5 L1294.5,652.5 M1282.5,910.5 L1282.5,667.5 L1305,667.5" fill="none" opacity="0.9" stroke="pink" stroke-width="6"/>
<path d="M1267.5,907.5 L1267.5,922.5 L1282.5,922.5 L1282.5,907.5" fill="none" opacity="0.9" stroke="pink" stroke-width="6"/>
<text class="species" transform="rotate(90 1275,915)" x="1260" y="897.5">
ECURT
</text>
<path d="M1342.5,910.5 L1342.5,652.5 L1315.5,652.5 M1327.5,910.5 L1327.5,667.5 L1305,667.5" fill="none" opacity="0.9" stroke="pink" stroke-width="6"/>
<path d="M1327.5,907.5 L1327.5,922.5 L1342.5,922.5 L1342.5,907.5" fill="none" opacity="0.9" stroke="pink" stroke-width="6"/>
<text class="species" transform="rotate(90 1335,915)" x="1320" y="897.5">
ECURV
</text>
<path d="M1402.5,910.5 L1402.5,532.5 L1290.1875,532.5 M1387.5,910.5 L1387.5,547.5 L1279.6875,547.5" fill="none" opacity="0.9" stroke="pink" stroke-width="6"/>
<path d="M1387.5,907.5 L1387.5,922.5 L1402.5,922.5 L1402.5,907.5" fill="none" opacity="0.9" stroke="pink" stroke-width="6"/>
<text class="species" transform="rotate(90 1395,915)" x="1380" y="897.5">
EwAmC
</text>
<path d="M1500,535.5 L1500,465 L1404.0938,465 M1485,535.5 L1485,495 L1386.0938,495" fill="none" opacity="0.9" stroke="pink" stroke-width="6"/>
<path d="M1455,910.5 L1455,532.5 L1482,532.5 M1470,910.5 L1470,547.5 L1492.5,547.5" fill="none" opacity="0.9" stroke="pink" stroke-width="6"/>
<path d="M1455,907.5 L1455,922.5 L1470,922.5 L1470,907.5" fill="none" opacity="0.9" stroke="pink" stroke-width="6"/>
<text class="species" transform="rotate(90 1462.5,915)" x="1447.5" y="897.5">
EwApS
</text>
<path d="M1530,910.5 L1530,532.5 L1503,532.5 M1515,910.5 L1515,547.5 L1492.5,547.5" fill="none" opacity="0.9" stroke="pink" stroke-width="6"/>
<path d="M1515,907.5 L1515,922.5 L1530,922.5 L1530,907.5" fill="none" opacity="0.9" stroke="pink" stroke-width="6"/>
<text class="species" transform="rotate(90 1522.5,915)" x="1507.5" y="897.5">
EwDaI
</text>
<path d="M1635,903 L1635,405 L1521.0469,405 M1605,903 L1605,435 L1503.0469,435" fill="none" opacity="0.9" stroke="pink" stroke-width="6"/>
<path d="M1605,900 L1605,930 L1635,930 L1635,900" fill="none" opacity="0.9" stroke="pink" stroke-width="6"/>
<text class="species" transform="rotate(90 1620,915)" x="1605" y="890">
EwBiE
</text>
<path d="M1747.5,408 L1747.5,337.5 L1635.7734,337.5 M1717.5,408 L1717.5,382.5 L1617.7734,382.5" fill="none" opacity="0.9" stroke="pink" stroke-width="6"/>
<path d="M1695,910.5 L1695,405 L1714.5,405 M1710,910.5 L1710,435 L1732.5,435" fill="none" opacity="0.9" stroke="pink" stroke-width="6"/>
<path d="M1695,907.5 L1695,922.5 L1710,922.5 L1710,907.5" fill="none" opacity="0.9" stroke="pink" stroke-width="6"/>
<text class="species" transform="rotate(90 1702.5,915)" x="1687.5" y="897.5">
Pantoea_gaviniae_DSM_22758
</text>
<path d="M1770,910.5 L1770,405 L1750.5,405 M1755,910.5 L1755,435 L1732.5,435" fill="none" opacity="0.9" stroke="pink" stroke-width="6"/>
<path d="M1755,907.5 L1755,922.5 L1770,922.5 L1770,907.5" fill="none" opacity="0.9" stroke="pink" stroke-width="6"/>
<text class="species" transform="rotate(90 1762.5,915)" x="1747.5" y="897.5">
Pantoea_calida_DSM_22759
</text>
<path d="M2017.5,295.5 L2017.5,232.5 L1611.1934,232.5 M2002.5,295.5 L2002.5,247.5 L1600.6934,247.5" fill="none" opacity="0.9" stroke="pink" stroke-width="6"/>
<path d="M1920,355.5 L1920,292.5 L1999.5,292.5 M1935,355.5 L1935,307.5 L2010,307.5" fill="none" opacity="0.9" stroke="pink" stroke-width="6"/>
<path d="M1860,415.5 L1860,352.5 L1917,352.5 M1875,415.5 L1875,367.5 L1927.5,367.5" fill="none" opacity="0.9" stroke="pink" stroke-width="6"/>
<path d="M1830,910.5 L1830,412.5 L1857,412.5 M1845,910.5 L1845,427.5 L1867.5,427.5" fill="none" opacity="0.9" stroke="pink" stroke-width="6"/>
<path d="M1830,907.5 L1830,922.5 L1845,922.5 L1845,907.5" fill="none" opacity="0.9" stroke="pink" stroke-width="6"/>
<text class="species" transform="rotate(90 1837.5,915)" x="1822.5" y="897.5">
HCURT
</text>
<path d="M1905,910.5 L1905,412.5 L1878,412.5 M1890,910.5 L1890,427.5 L1867.5,427.5" fill="none" opacity="0.9" stroke="pink" stroke-width="6"/>
<path d="M1890,907.5 L1890,922.5 L1905,922.5 L1905,907.5" fill="none" opacity="0.9" stroke="pink" stroke-width="6"/>
<text class="species" transform="rotate(90 1897.5,915)" x="1882.5" y="897.5">
HCURV
</text>
<path d="M1995,415.5 L1995,352.5 L1938,352.5 M1980,415.5 L1980,367.5 L1927.5,367.5" fill="none" opacity="0.9" stroke="pink" stroke-width="6"/>
<path d="M1950,910.5 L1950,412.5 L1977,412.5 M1965,910.5 L1965,427.5 L1987.5,427.5" fill="none" opacity="0.9" stroke="pink" stroke-width="6"/>
<path d="M1950,907.5 L1950,922.5 L1965,922.5 L1965,907.5" fill="none" opacity="0.9" stroke="pink" stroke-width="6"/>
<text class="species" transform="rotate(90 1957.5,915)" x="1942.5" y="897.5">
Hamiltonella_defensa_ZA17
</text>
<path d="M2025,910.5 L2025,412.5 L1998,412.5 M2010,910.5 L2010,427.5 L1987.5,427.5" fill="none" opacity="0.9" stroke="pink" stroke-width="6"/>
<path d="M2010,907.5 L2010,922.5 L2025,922.5 L2025,907.5" fill="none" opacity="0.9" stroke="pink" stroke-width="6"/>
<text class="species" transform="rotate(90 2017.5,915)" x="2002.5" y="897.5">
Hamiltonella_defensa_5AT
</text>
<path d="M2100,910.5 L2100,292.5 L2020.5,292.5 M2085,910.5 L2085,307.5 L2010,307.5" fill="none" opacity="0.9" stroke="pink" stroke-width="6"/>
<path d="M2085,907.5 L2085,922.5 L2100,922.5 L2100,907.5" fill="none" opacity="0.9" stroke="pink" stroke-width="6"/>
<text class="species" transform="rotate(90 2092.5,915)" x="2077.5" y="897.5">
Yersinia_pestis_CO92
</text>
<path d="M2212.5,228 L2212.5,165 L1917.0967,165 M2182.5,228 L2182.5,195 L1899.0967,195" fill="none" opacity="0.9" stroke="pink" stroke-width="6"/>
<path d="M2160,910.5 L2160,225 L2179.5,225 M2175,910.5 L2175,255 L2197.5,255" fill="none" opacity="0.9" stroke="pink" stroke-width="6"/>
<path d="M2160,907.5 L2160,922.5 L2175,922.5 L2175,907.5" fill="none" opacity="0.9" stroke="pink" stroke-width="6"/>
<text class="species" transform="rotate(90 2167.5,915)" x="2152.5" y="897.5">
Sodalis_praecaptivus_HS1
</text>
<path d="M2235,910.5 L2235,225 L2215.5,225 M2220,910.5 L2220,255 L2197.5,255" fill="none" opacity="0.9" stroke="pink" stroke-width="6"/>
<path d="M2220,907.5 L2220,922.5 L2235,922.5 L2235,907.5" fill="none" opacity="0.9" stroke="pink" stroke-width="6"/>
<text class="species" transform="rotate(90 2227.5,915)" x="2212.5" y="897.5">
Sodalis_pierantonius_SOPE
</text>
<path d="M2347.5,175.5 L2347.5,112.5 L2130.0483,112.5 M2332.5,175.5 L2332.5,127.5 L2119.5483,127.5" fill="none" opacity="0.9" stroke="pink" stroke-width="6"/>
<path d="M2302.5,910.5 L2302.5,172.5 L2329.5,172.5 M2317.5,910.5 L2317.5,187.5 L2340,187.5" fill="none" opacity="0.9" stroke="pink" stroke-width="6"/>
<path d="M2302.5,907.5 L2302.5,922.5 L2317.5,922.5 L2317.5,907.5" fill="none" opacity="0.9" stroke="pink" stroke-width="6"/>
<text class="species" transform="rotate(90 2310,915)" x="2295" y="897.5">
Photorhabdus_luminescens_TTO1
</text>
<path d="M2377.5,910.5 L2377.5,172.5 L2350.5,172.5 M2362.5,910.5 L2362.5,187.5 L2340,187.5" fill="none" opacity="0.9" stroke="pink" stroke-width="6"/>
<path d="M2362.5,907.5 L2362.5,922.5 L2377.5,922.5 L2377.5,907.5" fill="none" opacity="0.9" stroke="pink" stroke-width="6"/>
<text class="species" transform="rotate(90 2370,915)" x="2355" y="897.5">
Photorhabdus_asymbiotica_ATCC43949
</text>
<path d="M2119.5483,114 l-6,-6 l12,0 z" fill="rgb(26, 138, 178)" opacity="0.9" stroke="rgb(26, 138, 178)" stroke-width="1"/>
<circle cx="2119.5483" cy="120" fill="rgb(26, 138, 178)" opacity="0.9" r="3" stroke="rgb(26, 138, 178)" stroke-width="1"/>
<path d="M1891.5967,172.5 L1891.5967,120 L2119.5483,120" fill="none" opacity="0.9" stroke="rgb(26, 138, 178)" stroke-width="3"/>
<path d="M1889.5967,170.5 l0,4 l4,0 l0,-4 z" fill="rgb(26, 138, 178)" opacity="0.9" stroke="rgb(26, 138, 178)" stroke-width="3" transform="rotate(45 1891.5967 172.5)"/>
<path d="M2092.5 922.5 L 2092.5 907.5M2092.5 918.75L 2088.75 915M2092.5 918.75L 2096.25 915M2092.5 907.5 Q 1992.0483 480 1891.5967 172.5" fill="none" opacity="0.9" stroke="rgb(26, 138, 178)" stroke-dasharray="1, 1" stroke-width="3"/>
<path d="M2092,922 l0,1 l1,0 l0,-1 z" fill="red" opacity="0.9" stroke="red" stroke-width="3"/>
<text class="gene_0" transform="rotate(90 2087.5,937.5)" x="2087.5" y="937.5">
Yersinia_pestis_CO92
</text>
<path d="M1906.5967,187.5 L1906.5967,172.5 L1891.5967,172.5" fill="none" opacity="0.9" stroke="rgb(26, 138, 178)" stroke-width="3"/>
<circle cx="1906.5967" cy="187.5" fill="rgb(26, 138, 178)" opacity="0.9" r="3" stroke="rgb(26, 138, 178)" stroke-width="1"/>
<path d="M1600.6934,240 L1600.6934,187.5 L1906.5967,187.5" fill="none" opacity="0.9" stroke="rgb(26, 138, 178)" stroke-width="3"/>
<circle cx="1600.6934" cy="240" fill="rgb(26, 138, 178)" opacity="0.9" r="3" stroke="rgb(26, 138, 178)" stroke-width="1"/>
<path d="M1191.3867,300 L1191.3867,240 L1600.6934,240" fill="none" opacity="0.9" stroke="rgb(26, 138, 178)" stroke-width="3"/>
<circle cx="1191.3867" cy="300" fill="rgb(26, 138, 178)" opacity="0.9" r="3" stroke="rgb(26, 138, 178)" stroke-width="1"/>
<path d="M765,922.5 L765,300 L1191.3867,300" fill="none" opacity="0.9" stroke="rgb(26, 138, 178)" stroke-width="3"/>
<path d="M764.5,922 l0,1 l1,0 l0,-1 z" fill="red" opacity="0.9" stroke="red" stroke-width="3"/>
<text class="gene_0" transform="rotate(90 760,937.5)" x="760" y="937.5">
Escherichia_coli_K12_MG1655
</text>
<path d="M1610.2734,345 L1610.2734,300 L1191.3867,300" fill="none" opacity="0.9" stroke="rgb(26, 138, 178)" stroke-width="3"/>
<path d="M1607.2734,342 l0,6 l6,0 l0,-6 z" fill="rgb(26, 138, 178)" opacity="0.9" stroke="rgb(26, 138, 178)" stroke-width="3"/>
<path d="M1625.2734,360 L1625.2734,345 L1610.2734,345" fill="none" opacity="0.9" stroke="rgb(26, 138, 178)" stroke-width="3"/>
<circle cx="1625.2734" cy="360" fill="rgb(26, 138, 178)" opacity="0.9" r="3" stroke="rgb(26, 138, 178)" stroke-width="1"/>
<path d="M1495.5469,412.5 L1495.5469,360 L1625.2734,360" fill="none" opacity="0.9" stroke="rgb(26, 138, 178)" stroke-width="3"/>
<circle cx="1495.5469" cy="412.5" fill="rgb(26, 138, 178)" opacity="0.9" r="3" stroke="rgb(26, 138, 178)" stroke-width="1"/>
<path d="M1378.5938,472.5 L1378.5938,412.5 L1495.5469,412.5" fill="none" opacity="0.9" stroke="rgb(26, 138, 178)" stroke-width="3"/>
<circle cx="1378.5938" cy="472.5" fill="rgb(26, 138, 178)" opacity="0.9" r="3" stroke="rgb(26, 138, 178)" stroke-width="1"/>
<path d="M1492.5,540 L1492.5,472.5 L1378.5938,472.5" fill="none" opacity="0.9" stroke="rgb(26, 138, 178)" stroke-width="3"/>
<circle cx="1492.5" cy="540" fill="rgb(26, 138, 178)" opacity="0.9" r="3" stroke="rgb(26, 138, 178)" stroke-width="1"/>
<path d="M1462.5,922.5 L1462.5,540 L1492.5,540" fill="none" opacity="0.9" stroke="rgb(26, 138, 178)" stroke-width="3"/>
<path d="M1462,922 l0,1 l1,0 l0,-1 z" fill="red" opacity="0.9" stroke="red" stroke-width="3"/>
<text class="gene_0" transform="rotate(90 1457.5,937.5)" x="1457.5" y="937.5">
EwApS.l.l.l
</text>
<path d="M1522.5,915 L1522.5,540 L1492.5,540" fill="none" opacity="0.9" stroke="rgb(26, 138, 178)" stroke-width="3"/>
<path d="M1522.5,911 l0,8 M1518.5,915 l8,0" fill="rgb(26, 138, 178)" opacity="0.9" stroke="rgb(26, 138, 178)" stroke-width="2" transform="rotate(45 1522.5 915)"/>
<path d="M1279.6875,540 L1279.6875,472.5 L1378.5938,472.5" fill="none" opacity="0.9" stroke="rgb(26, 138, 178)" stroke-width="3"/>
<path d="M1279.6875,536 l0,8 M1275.6875,540 l8,0" fill="rgb(26, 138, 178)" opacity="0.9" stroke="rgb(26, 138, 178)" stroke-width="2" transform="rotate(45 1279.6875 540)"/>
<path d="M1627.5,907.5 L1627.5,412.5 L1495.5469,412.5" fill="none" opacity="0.9" stroke="rgb(26, 138, 178)" stroke-width="3"/>
<path d="M1627.5,903.5 l0,8 M1623.5,907.5 l8,0" fill="rgb(26, 138, 178)" opacity="0.9" stroke="rgb(26, 138, 178)" stroke-width="2" transform="rotate(45 1627.5 907.5)"/>
<path d="M1740,412.5 L1740,360 L1625.2734,360" fill="none" opacity="0.9" stroke="rgb(26, 138, 178)" stroke-width="3"/>
<circle cx="1740" cy="412.5" fill="rgb(26, 138, 178)" opacity="0.9" r="3" stroke="rgb(26, 138, 178)" stroke-width="1"/>
<path d="M1762.5,922.5 L1762.5,412.5 L1740,412.5" fill="none" opacity="0.9" stroke="rgb(26, 138, 178)" stroke-width="3"/>
<path d="M1762,922 l0,1 l1,0 l0,-1 z" fill="red" opacity="0.9" stroke="red" stroke-width="3"/>
<text class="gene_0" transform="rotate(90 1757.5,937.5)" x="1757.5" y="937.5">
Pantoea_calida_DSM_22759.l
</text>
<path d="M1702.5,915 L1702.5,412.5 L1740,412.5" fill="none" opacity="0.9" stroke="rgb(26, 138, 178)" stroke-width="3"/>
<path d="M1702.5,911 l0,8 M1698.5,915 l8,0" fill="rgb(26, 138, 178)" opacity="0.9" stroke="rgb(26, 138, 178)" stroke-width="2" transform="rotate(45 1702.5 915)"/>
<path d="M1610.2734,375 L1610.2734,345 L1610.2734,345" fill="none" opacity="0.9" stroke="rgb(26, 138, 178)" stroke-width="3"/>
<circle cx="1610.2734" cy="375" fill="rgb(26, 138, 178)" opacity="0.9" r="3" stroke="rgb(26, 138, 178)" stroke-width="1"/>
<path d="M1510.5469,427.5 L1510.5469,375 L1610.2734,375" fill="none" opacity="0.9" stroke="rgb(26, 138, 178)" stroke-width="3"/>
<circle cx="1510.5469" cy="427.5" fill="rgb(26, 138, 178)" opacity="0.9" r="3" stroke="rgb(26, 138, 178)" stroke-width="1"/>
<path d="M1612.5,930 L1612.5,427.5 L1510.5469,427.5" fill="none" opacity="0.9" stroke="rgb(26, 138, 178)" stroke-width="3"/>
<path d="M1612,929.5 l0,1 l1,0 l0,-1 z" fill="red" opacity="0.9" stroke="red" stroke-width="3"/>
<text class="gene_0" transform="rotate(90 1607.5,945)" x="1607.5" y="945">
EwBiE.l.l
</text>
<path d="M1393.5938,487.5 L1393.5938,427.5 L1510.5469,427.5" fill="none" opacity="0.9" stroke="rgb(26, 138, 178)" stroke-width="3"/>
<path d="M1393.5938,483.5 l0,8 M1389.5938,487.5 l8,0" fill="rgb(26, 138, 178)" opacity="0.9" stroke="rgb(26, 138, 178)" stroke-width="2" transform="rotate(45 1393.5938 487.5)"/>
<path d="M1725,427.5 L1725,375 L1610.2734,375" fill="none" opacity="0.9" stroke="rgb(26, 138, 178)" stroke-width="3"/>
<path d="M1725,423.5 l0,8 M1721,427.5 l8,0" fill="rgb(26, 138, 178)" opacity="0.9" stroke="rgb(26, 138, 178)" stroke-width="2" transform="rotate(45 1725 427.5)"/>
<path d="M2010,300 L2010,240 L1600.6934,240" fill="none" opacity="0.9" stroke="rgb(26, 138, 178)" stroke-width="3"/>
<path d="M2010,296 l0,8 M2006,300 l8,0" fill="rgb(26, 138, 178)" opacity="0.9" stroke="rgb(26, 138, 178)" stroke-width="2" transform="rotate(45 2010 300)"/>
<path d="M2205,232.5 L2205,187.5 L1906.5967,187.5" fill="none" opacity="0.9" stroke="rgb(26, 138, 178)" stroke-width="3"/>
<path d="M2202.5,230 l0,5 l5,0 l0,-5 z" fill="yellow" opacity="0.9" stroke="yellow" stroke-width="3"/>
<path d="M451.40625 120 L 451.40625 105M451.40625 116.25L 447.65625 112.5M451.40625 116.25L 455.15625 112.5M451.40625 105 Q 1328.2031 108.75 2205 232.5" fill="none" opacity="0.9" stroke="rgb(26, 138, 178)" stroke-dasharray="4, 1" stroke-width="3"/>
<circle cx="451.40625" cy="120" fill="rgb(26, 138, 178)" opacity="0.9" r="3" stroke="rgb(26, 138, 178)" stroke-width="1"/>
<path d="M265.3125,180 L265.3125,120 L451.40625,120" fill="none" opacity="0.9" stroke="rgb(26, 138, 178)" stroke-width="3"/>
<circle cx="265.3125" cy="180" fill="rgb(26, 138, 178)" opacity="0.9" r="3" stroke="rgb(26, 138, 178)" stroke-width="1"/>
<path d="M75,225 L75,180 L265.3125,180" fill="none" opacity="0.9" stroke="rgb(26, 138, 178)" stroke-width="3"/>
<path d="M72,222 l0,6 l6,0 l0,-6 z" fill="rgb(26, 138, 178)" opacity="0.9" stroke="rgb(26, 138, 178)" stroke-width="3"/>
<path d="M75,240 L75,225 L75,225" fill="none" opacity="0.9" stroke="rgb(26, 138, 178)" stroke-width="3"/>
<circle cx="75" cy="240" fill="rgb(26, 138, 178)" opacity="0.9" r="3" stroke="rgb(26, 138, 178)" stroke-width="1"/>
<path d="M-7.5,930 L-7.5,240 L75,240" fill="none" opacity="0.9" stroke="rgb(26, 138, 178)" stroke-width="3"/>
<path d="M-8,929.5 l0,1 l1,0 l0,-1 z" fill="red" opacity="0.9" stroke="red" stroke-width="3"/>
<text class="gene_0" transform="rotate(90 -12.5,945)" x="-12.5" y="945">
ECUMA
</text>
<path d="M172.5,292.5 L172.5,240 L75,240" fill="none" opacity="0.9" stroke="rgb(26, 138, 178)" stroke-width="3"/>
<circle cx="172.5" cy="292.5" fill="rgb(26, 138, 178)" opacity="0.9" r="3" stroke="rgb(26, 138, 178)" stroke-width="1"/>
<path d="M97.5,930 L97.5,292.5 L172.5,292.5" fill="none" opacity="0.9" stroke="rgb(26, 138, 178)" stroke-width="3"/>
<path d="M97,929.5 l0,1 l1,0 l0,-1 z" fill="red" opacity="0.9" stroke="red" stroke-width="3"/>
<text class="gene_0" transform="rotate(90 92.5,945)" x="92.5" y="945">
EKOCA.l
</text>
<path d="M232.5,907.5 L232.5,292.5 L172.5,292.5" fill="none" opacity="0.9" stroke="rgb(26, 138, 178)" stroke-width="3"/>
<path d="M232.5,903.5 l0,8 M228.5,907.5 l8,0" fill="rgb(26, 138, 178)" opacity="0.9" stroke="rgb(26, 138, 178)" stroke-width="2" transform="rotate(45 232.5 907.5)"/>
<path d="M90,255 L90,225 L75,225" fill="none" opacity="0.9" stroke="rgb(26, 138, 178)" stroke-width="3"/>
<circle cx="90" cy="255" fill="rgb(26, 138, 178)" opacity="0.9" r="3" stroke="rgb(26, 138, 178)" stroke-width="1"/>
<path d="M157.5,307.5 L157.5,255 L90,255" fill="none" opacity="0.9" stroke="rgb(26, 138, 178)" stroke-width="3"/>
<circle cx="157.5" cy="307.5" fill="rgb(26, 138, 178)" opacity="0.9" r="3" stroke="rgb(26, 138, 178)" stroke-width="1"/>
<path d="M217.5,930 L217.5,307.5 L157.5,307.5" fill="none" opacity="0.9" stroke="rgb(26, 138, 178)" stroke-width="3"/>
<path d="M217,929.5 l0,1 l1,0 l0,-1 z" fill="red" opacity="0.9" stroke="red" stroke-width="3"/>
<text class="gene_0" transform="rotate(90 212.5,945)" x="212.5" y="945">
ELAFE.l.l
</text>
<path d="M112.5,922.5 L112.5,307.5 L157.5,307.5" fill="none" opacity="0.9" stroke="rgb(26, 138, 178)" stroke-width="3"/>
<path d="M112.5,918.5 l0,8 M108.5,922.5 l8,0" fill="rgb(26, 138, 178)" opacity="0.9" stroke="rgb(26, 138, 178)" stroke-width="2" transform="rotate(45 112.5 922.5)"/>
<path d="M7.5,922.5 L7.5,255 L90,255" fill="none" opacity="0.9" stroke="rgb(26, 138, 178)" stroke-width="3"/>
<path d="M7.5,918.5 l0,8 M3.5,922.5 l8,0" fill="rgb(26, 138, 178)" opacity="0.9" stroke="rgb(26, 138, 178)" stroke-width="2" transform="rotate(45 7.5 922.5)"/>
<path d="M448.125,240 L448.125,180 L265.3125,180" fill="none" opacity="0.9" stroke="rgb(26, 138, 178)" stroke-width="3"/>
<circle cx="448.125" cy="240" fill="rgb(26, 138, 178)" opacity="0.9" r="3" stroke="rgb(26, 138, 178)" stroke-width="1"/>
<path d="M363.75,300 L363.75,240 L448.125,240" fill="none" opacity="0.9" stroke="rgb(26, 138, 178)" stroke-width="3"/>
<circle cx="363.75" cy="300" fill="rgb(26, 138, 178)" opacity="0.9" r="3" stroke="rgb(26, 138, 178)" stroke-width="1"/>
<path d="M307.5,922.5 L307.5,300 L363.75,300" fill="none" opacity="0.9" stroke="rgb(26, 138, 178)" stroke-width="3"/>
<path d="M307,922 l0,1 l1,0 l0,-1 z" fill="red" opacity="0.9" stroke="red" stroke-width="3"/>
<text class="gene_0" transform="rotate(90 302.5,937.5)" x="302.5" y="937.5">
EPSPA
</text>
<path d="M420,360 L420,300 L363.75,300" fill="none" opacity="0.9" stroke="rgb(26, 138, 178)" stroke-width="3"/>
<circle cx="420" cy="360" fill="rgb(26, 138, 178)" opacity="0.9" r="3" stroke="rgb(26, 138, 178)" stroke-width="1"/>
<path d="M390,922.5 L390,360 L420,360" fill="none" opacity="0.9" stroke="rgb(26, 138, 178)" stroke-width="3"/>
<path d="M389.5,922 l0,1 l1,0 l0,-1 z" fill="red" opacity="0.9" stroke="red" stroke-width="3"/>
<text class="gene_0" transform="rotate(90 385,937.5)" x="385" y="937.5">
ESPPA
</text>
<path d="M450,922.5 L450,360 L420,360" fill="none" opacity="0.9" stroke="rgb(26, 138, 178)" stroke-width="3"/>
<path d="M449.5,922 l0,1 l1,0 l0,-1 z" fill="red" opacity="0.9" stroke="red" stroke-width="3"/>
<text class="gene_0" transform="rotate(90 445,937.5)" x="445" y="937.5">
ESPPS
</text>
<path d="M532.5,922.5 L532.5,240 L448.125,240" fill="none" opacity="0.9" stroke="rgb(26, 138, 178)" stroke-width="3"/>
<path d="M532,922 l0,1 l1,0 l0,-1 z" fill="red" opacity="0.9" stroke="red" stroke-width="3"/>
<text class="gene_0" transform="rotate(90 527.5,937.5)" x="527.5" y="937.5">
EPSTX
</text>
<path d="M652.5,165 L652.5,120 L451.40625,120" fill="none" opacity="0.9" stroke="rgb(26, 138, 178)" stroke-width="3"/>
<path d="M650,162.5 l0,5 l5,0 l0,-5 z" fill="yellow" opacity="0.9" stroke="yellow" stroke-width="3"/>
<path d="M637.5 180 L 637.5 165M637.5 176.25L 633.75 172.5M637.5 176.25L 641.25 172.5M637.5 165 Q 645 105 652.5 165" fill="none" opacity="0.9" stroke="rgb(26, 138, 178)" stroke-dasharray="4, 1" stroke-width="3"/>
<circle cx="637.5" cy="180" fill="rgb(26, 138, 178)" opacity="0.9" r="3" stroke="rgb(26, 138, 178)" stroke-width="1"/>
<path d="M607.5,922.5 L607.5,180 L637.5,180" fill="none" opacity="0.9" stroke="rgb(26, 138, 178)" stroke-width="3"/>
<path d="M607,922 l0,1 l1,0 l0,-1 z" fill="red" opacity="0.9" stroke="red" stroke-width="3"/>
<text class="gene_0" transform="rotate(90 602.5,937.5)" x="602.5" y="937.5">
HCURT
</text>
<path d="M667.5,922.5 L667.5,180 L637.5,180" fill="none" opacity="0.9" stroke="rgb(26, 138, 178)" stroke-width="3"/>
<path d="M667,922 l0,1 l1,0 l0,-1 z" fill="red" opacity="0.9" stroke="red" stroke-width="3"/>
<text class="gene_0" transform="rotate(90 662.5,937.5)" x="662.5" y="937.5">
HCURV
</text>
<path d="M622.5,195 L622.5,165 L652.5,165" fill="none" opacity="0.9" stroke="rgb(26, 138, 178)" stroke-width="3"/>
<path d="M622.5,191 l0,8 M618.5,195 l8,0" fill="rgb(26, 138, 178)" opacity="0.9" stroke="rgb(26, 138, 178)" stroke-width="2" transform="rotate(45 622.5 195)"/>
<path d="M2190,247.5 L2190,232.5 L2205,232.5" fill="none" opacity="0.9" stroke="rgb(26, 138, 178)" stroke-width="3"/>
<circle cx="2190" cy="247.5" fill="rgb(26, 138, 178)" opacity="0.9" r="3" stroke="rgb(26, 138, 178)" stroke-width="1"/>
<path d="M2167.5,922.5 L2167.5,247.5 L2190,247.5" fill="none" opacity="0.9" stroke="rgb(26, 138, 178)" stroke-width="3"/>
<path d="M2167,922 l0,1 l1,0 l0,-1 z" fill="red" opacity="0.9" stroke="red" stroke-width="3"/>
<text class="gene_0" transform="rotate(90 2162.5,937.5)" x="2162.5" y="937.5">
Sodalis_praecaptivus_HS1.l
</text>
<path d="M2227.5,915 L2227.5,247.5 L2190,247.5" fill="none" opacity="0.9" stroke="rgb(26, 138, 178)" stroke-width="3"/>
<path d="M2227.5,911 l0,8 M2223.5,915 l8,0" fill="rgb(26, 138, 178)" opacity="0.9" stroke="rgb(26, 138, 178)" stroke-width="2" transform="rotate(45 2227.5 915)"/>
<path d="M2340,180 L2340,120 L2119.5483,120" fill="none" opacity="0.9" stroke="rgb(26, 138, 178)" stroke-width="3"/>
<circle cx="2340" cy="180" fill="rgb(26, 138, 178)" opacity="0.9" r="3" stroke="rgb(26, 138, 178)" stroke-width="1"/>
<path d="M2310,922.5 L2310,180 L2340,180" fill="none" opacity="0.9" stroke="rgb(26, 138, 178)" stroke-width="3"/>
<path d="M2309.5,922 l0,1 l1,0 l0,-1 z" fill="red" opacity="0.9" stroke="red" stroke-width="3"/>
<text class="gene_0" transform="rotate(90 2305,937.5)" x="2305" y="937.5">
Photorhabdus_luminescens_TTO1
</text>
<path d="M2370,922.5 L2370,180 L2340,180" fill="none" opacity="0.9" stroke="rgb(26, 138, 178)" stroke-width="3"/>
<path d="M2369.5,922 l0,1 l1,0 l0,-1 z" fill="red" opacity="0.9" stroke="red" stroke-width="3"/>
<text class="gene_0" transform="rotate(90 2365,937.5)" x="2365" y="937.5">
Photorhabdus_asymbiotica_ATCC43949
</text>
</g>
</svg>