<svg height="2422.5" viewBox="-7.5 52.5 1459.25 2542.5" width="1217.5" xmlns="http://www.w3.org/2000/svg">
<style>
.species { font: italic 12px serif; fill: orange; }
</style>
<style>
.gene_0 { font: 10px serif; fill:rgb(38, 103, 155); }
</style>
<g transform="translate(  -7.5 2475) rotate(-90 0 0 ) ">
<path d="M388.59375,115.5 L388.59375,52.5 L1236.364,52.5 M403.59375,115.5 L403.59375,67.5 L1246.864,67.5" fill="none" opacity="0.9" stroke="pink" stroke-width="6"/>
<path d="M199.6875,175.5 L199.6875,112.5 L385.59375,112.5 M214.6875,175.5 L214.6875,127.5 L396.09375,127.5" fill="none" opacity="0.9" stroke="pink" stroke-width="6"/>
<path d="M48.75,235.5 L48.75,172.5 L196.6875,172.5 M63.75,235.5 L63.75,187.5 L207.1875,187.5" fill="none" opacity="0.9" stroke="pink" stroke-width="6"/>
<path d="M-7.5,910.5 L-7.5,232.5 L45.75,232.5 M7.5,910.5 L7.5,247.5 L56.25,247.5" fill="none" opacity="0.9" stroke="pink" stroke-width="6"/>
<path d="M-7.5,907.5 L-7.5,922.5 L7.5,922.5 L7.5,907.5" fill="none" opacity="0.9" stroke="pink" stroke-width="6"/>
<text class="species" transform="rotate(90 0,915)" x="-15" y="897.5">
BCUMA
</text>
<path d="M120,295.5 L120,232.5 L66.75,232.5 M105,295.5 L105,247.5 L56.25,247.5" fill="none" opacity="0.9" stroke="pink" stroke-width="6"/>
<path d="M75,910.5 L75,292.5 L102,292.5 M90,910.5 L90,307.5 L112.5,307.5" fill="none" opacity="0.9" stroke="pink" stroke-width="6"/>
<path d="M75,907.5 L75,922.5 L90,922.5 L90,907.5" fill="none" opacity="0.9" stroke="pink" stroke-width="6"/>
<text class="species" transform="rotate(90 82.5,915)" x="67.5" y="897.5">
BKOCA
</text>
<path d="M150,910.5 L150,292.5 L123,292.5 M135,910.5 L135,307.5 L112.5,307.5" fill="none" opacity="0.9" stroke="pink" stroke-width="6"/>
<path d="M135,907.5 L135,922.5 L150,922.5 L150,907.5" fill="none" opacity="0.9" stroke="pink" stroke-width="6"/>
<text class="species" transform="rotate(90 142.5,915)" x="127.5" y="897.5">
BLAFE
</text>
<path d="M365.625,235.5 L365.625,172.5 L217.6875,172.5 M350.625,235.5 L350.625,187.5 L207.1875,187.5" fill="none" opacity="0.9" stroke="pink" stroke-width="6"/>
<path d="M266.25,295.5 L266.25,232.5 L347.625,232.5 M281.25,295.5 L281.25,247.5 L358.125,247.5" fill="none" opacity="0.9" stroke="pink" stroke-width="6"/>
<path d="M210,910.5 L210,292.5 L263.25,292.5 M225,910.5 L225,307.5 L273.75,307.5" fill="none" opacity="0.9" stroke="pink" stroke-width="6"/>
<path d="M210,907.5 L210,922.5 L225,922.5 L225,907.5" fill="none" opacity="0.9" stroke="pink" stroke-width="6"/>
<text class="species" transform="rotate(90 217.5,915)" x="202.5" y="897.5">
BPSPA
</text>
<path d="M337.5,355.5 L337.5,292.5 L284.25,292.5 M322.5,355.5 L322.5,307.5 L273.75,307.5" fill="none" opacity="0.9" stroke="pink" stroke-width="6"/>
<path d="M292.5,910.5 L292.5,352.5 L319.5,352.5 M307.5,910.5 L307.5,367.5 L330,367.5" fill="none" opacity="0.9" stroke="pink" stroke-width="6"/>
<path d="M292.5,907.5 L292.5,922.5 L307.5,922.5 L307.5,907.5" fill="none" opacity="0.9" stroke="pink" stroke-width="6"/>
<text class="species" transform="rotate(90 300,915)" x="285" y="897.5">
BSPPA
</text>
<path d="M367.5,910.5 L367.5,352.5 L340.5,352.5 M352.5,910.5 L352.5,367.5 L330,367.5" fill="none" opacity="0.9" stroke="pink" stroke-width="6"/>
<path d="M352.5,907.5 L352.5,922.5 L367.5,922.5 L367.5,907.5" fill="none" opacity="0.9" stroke="pink" stroke-width="6"/>
<text class="species" transform="rotate(90 360,915)" x="345" y="897.5">
BSPPS
</text>
<path d="M450,910.5 L450,232.5 L368.625,232.5 M435,910.5 L435,247.5 L358.125,247.5" fill="none" opacity="0.9" stroke="pink" stroke-width="6"/>
<path d="M435,907.5 L435,922.5 L450,922.5 L450,907.5" fill="none" opacity="0.9" stroke="pink" stroke-width="6"/>
<text class="species" transform="rotate(90 442.5,915)" x="427.5" y="897.5">
BPSTX
</text>
<path d="M600,168 L600,112.5 L406.59375,112.5 M570,168 L570,127.5 L396.09375,127.5" fill="none" opacity="0.9" stroke="pink" stroke-width="6"/>
<path d="M510,903 L510,165 L567,165 M540,903 L540,195 L585,195" fill="none" opacity="0.9" stroke="pink" stroke-width="6"/>
<path d="M510,900 L510,930 L540,930 L540,900" fill="none" opacity="0.9" stroke="pink" stroke-width="6"/>
<text class="species" transform="rotate(90 525,915)" x="510" y="890">
BCURT
</text>
<path d="M660,903 L660,165 L603,165 M630,903 L630,195 L585,195" fill="none" opacity="0.9" stroke="pink" stroke-width="6"/>
<path d="M630,900 L630,930 L660,930 L660,900" fill="none" opacity="0.9" stroke="pink" stroke-width="6"/>
<text class="species" transform="rotate(90 645,915)" x="630" y="890">
BCURV
</text>
<path d="M2105.1343,115.5 L2105.1343,52.5 L1257.364,52.5 M2090.1343,115.5 L2090.1343,67.5 L1246.864,67.5" fill="none" opacity="0.9" stroke="pink" stroke-width="6"/>
<path d="M1870.2686,175.5 L1870.2686,112.5 L2087.1343,112.5 M1885.2686,175.5 L1885.2686,127.5 L2097.6343,127.5" fill="none" opacity="0.9" stroke="pink" stroke-width="6"/>
<path d="M1565.5371,235.5 L1565.5371,172.5 L1867.2686,172.5 M1580.5371,235.5 L1580.5371,187.5 L1877.7686,187.5" fill="none" opacity="0.9" stroke="pink" stroke-width="6"/>
<path d="M1149.1992,295.5 L1149.1992,232.5 L1562.5371,232.5 M1164.1992,295.5 L1164.1992,247.5 L1573.0371,247.5" fill="none" opacity="0.9" stroke="pink" stroke-width="6"/>
<path d="M720,910.5 L720,292.5 L1146.1992,292.5 M735,910.5 L735,307.5 L1156.6992,307.5" fill="none" opacity="0.9" stroke="pink" stroke-width="6"/>
<path d="M720,907.5 L720,922.5 L735,922.5 L735,907.5" fill="none" opacity="0.9" stroke="pink" stroke-width="6"/>
<text class="species" transform="rotate(90 727.5,915)" x="712.5" y="897.5">
Escherichia_coli_K12_MG1655
</text>
<path d="M1593.3984,355.5 L1593.3984,292.5 L1167.1992,292.5 M1578.3984,355.5 L1578.3984,307.5 L1156.6992,307.5" fill="none" opacity="0.9" stroke="pink" stroke-width="6"/>
<path d="M1469.2969,415.5 L1469.2969,352.5 L1575.3984,352.5 M1484.2969,415.5 L1484.2969,367.5 L1585.8984,367.5" fill="none" opacity="0.9" stroke="pink" stroke-width="6"/>
<path d="M1356.0938,475.5 L1356.0938,412.5 L1466.2969,412.5 M1371.0938,475.5 L1371.0938,427.5 L1476.7969,427.5" fill="none" opacity="0.9" stroke="pink" stroke-width="6"/>
<path d="M1242.1875,535.5 L1242.1875,472.5 L1353.0938,472.5 M1257.1875,535.5 L1257.1875,487.5 L1363.5938,487.5" fill="none" opacity="0.9" stroke="pink" stroke-width="6"/>
<path d="M1111.875,588 L1111.875,532.5 L1239.1875,532.5 M1141.875,588 L1141.875,547.5 L1249.6875,547.5" fill="none" opacity="0.9" stroke="pink" stroke-width="6"/>
<path d="M978.75,655.5 L978.75,585 L1108.875,585 M993.75,655.5 L993.75,615 L1126.875,615" fill="none" opacity="0.9" stroke="pink" stroke-width="6"/>
<path d="M855,715.5 L855,652.5 L975.75,652.5 M870,715.5 L870,667.5 L986.25,667.5" fill="none" opacity="0.9" stroke="pink" stroke-width="6"/>
<path d="M810,910.5 L810,712.5 L852,712.5 M825,910.5 L825,727.5 L862.5,727.5" fill="none" opacity="0.9" stroke="pink" stroke-width="6"/>
<path d="M810,907.5 L810,922.5 L825,922.5 L825,907.5" fill="none" opacity="0.9" stroke="pink" stroke-width="6"/>
<text class="species" transform="rotate(90 817.5,915)" x="802.5" y="897.5">
ECUMA
</text>
<path d="M915,775.5 L915,712.5 L873,712.5 M900,775.5 L900,727.5 L862.5,727.5" fill="none" opacity="0.9" stroke="pink" stroke-width="6"/>
<path d="M870,910.5 L870,772.5 L897,772.5 M885,910.5 L885,787.5 L907.5,787.5" fill="none" opacity="0.9" stroke="pink" stroke-width="6"/>
<path d="M870,907.5 L870,922.5 L885,922.5 L885,907.5" fill="none" opacity="0.9" stroke="pink" stroke-width="6"/>
<text class="species" transform="rotate(90 877.5,915)" x="862.5" y="897.5">
EKOCA
</text>
<path d="M945,910.5 L945,772.5 L918,772.5 M930,910.5 L930,787.5 L907.5,787.5" fill="none" opacity="0.9" stroke="pink" stroke-width="6"/>
<path d="M930,907.5 L930,922.5 L945,922.5 L945,907.5" fill="none" opacity="0.9" stroke="pink" stroke-width="6"/>
<text class="species" transform="rotate(90 937.5,915)" x="922.5" y="897.5">
ELAFE
</text>
<path d="M1117.5,715.5 L1117.5,652.5 L996.75,652.5 M1102.5,715.5 L1102.5,667.5 L986.25,667.5" fill="none" opacity="0.9" stroke="pink" stroke-width="6"/>
<path d="M1035,775.5 L1035,712.5 L1099.5,712.5 M1050,775.5 L1050,727.5 L1110,727.5" fill="none" opacity="0.9" stroke="pink" stroke-width="6"/>
<path d="M990,910.5 L990,772.5 L1032,772.5 M1005,910.5 L1005,787.5 L1042.5,787.5" fill="none" opacity="0.9" stroke="pink" stroke-width="6"/>
<path d="M990,907.5 L990,922.5 L1005,922.5 L1005,907.5" fill="none" opacity="0.9" stroke="pink" stroke-width="6"/>
<text class="species" transform="rotate(90 997.5,915)" x="982.5" y="897.5">
EPSPA
</text>
<path d="M1095,835.5 L1095,772.5 L1053,772.5 M1080,835.5 L1080,787.5 L1042.5,787.5" fill="none" opacity="0.9" stroke="pink" stroke-width="6"/>
<path d="M1050,910.5 L1050,832.5 L1077,832.5 M1065,910.5 L1065,847.5 L1087.5,847.5" fill="none" opacity="0.9" stroke="pink" stroke-width="6"/>
<path d="M1050,907.5 L1050,922.5 L1065,922.5 L1065,907.5" fill="none" opacity="0.9" stroke="pink" stroke-width="6"/>
<text class="species" transform="rotate(90 1057.5,915)" x="1042.5" y="897.5">
ESPPA
</text>
<path d="M1125,910.5 L1125,832.5 L1098,832.5 M1110,910.5 L1110,847.5 L1087.5,847.5" fill="none" opacity="0.9" stroke="pink" stroke-width="6"/>
<path d="M1110,907.5 L1110,922.5 L1125,922.5 L1125,907.5" fill="none" opacity="0.9" stroke="pink" stroke-width="6"/>
<text class="species" transform="rotate(90 1117.5,915)" x="1102.5" y="897.5">
ESPPS
</text>
<path d="M1185,910.5 L1185,712.5 L1120.5,712.5 M1170,910.5 L1170,727.5 L1110,727.5" fill="none" opacity="0.9" stroke="pink" stroke-width="6"/>
<path d="M1170,907.5 L1170,922.5 L1185,922.5 L1185,907.5" fill="none" opacity="0.9" stroke="pink" stroke-width="6"/>
<text class="species" transform="rotate(90 1177.5,915)" x="1162.5" y="897.5">
EPSTX
</text>
<path d="M1275,655.5 L1275,585 L1144.875,585 M1260,655.5 L1260,615 L1126.875,615" fill="none" opacity="0.9" stroke="pink" stroke-width="6"/>
<path d="M1230,910.5 L1230,652.5 L1257,652.5 M1245,910.5 L1245,667.5 L1267.5,667.5" fill="none" opacity="0.9" stroke="pink" stroke-width="6"/>
<path d="M1230,907.5 L1230,922.5 L1245,922.5 L1245,907.5" fill="none" opacity="0.9" stroke="pink" stroke-width="6"/>
<text class="species" transform="rotate(90 1237.5,915)" x="1222.5" y="897.5">
ECURT
</text>
<path d="M1305,910.5 L1305,652.5 L1278,652.5 M1290,910.5 L1290,667.5 L1267.5,667.5" fill="none" opacity="0.9" stroke="pink" stroke-width="6"/>
<path d="M1290,907.5 L1290,922.5 L1305,922.5 L1305,907.5" fill="none" opacity="0.9" stroke="pink" stroke-width="6"/>
<text class="species" transform="rotate(90 1297.5,915)" x="1282.5" y="897.5">
ECURV
</text>
<path d="M1380,910.5 L1380,532.5 L1260.1875,532.5 M1365,910.5 L1365,547.5 L1249.6875,547.5" fill="none" opacity="0.9" stroke="pink" stroke-width="6"/>
<path d="M1365,907.5 L1365,922.5 L1380,922.5 L1380,907.5" fill="none" opacity="0.9" stroke="pink" stroke-width="6"/>
<text class="species" transform="rotate(90 1372.5,915)" x="1357.5" y="897.5">
EwAmC
</text>
<path d="M1485,535.5 L1485,472.5 L1374.0938,472.5 M1470,535.5 L1470,487.5 L1363.5938,487.5" fill="none" opacity="0.9" stroke="pink" stroke-width="6"/>
<path d="M1440,910.5 L1440,532.5 L1467,532.5 M1455,910.5 L1455,547.5 L1477.5,547.5" fill="none" opacity="0.9" stroke="pink" stroke-width="6"/>
<path d="M1440,907.5 L1440,922.5 L1455,922.5 L1455,907.5" fill="none" opacity="0.9" stroke="pink" stroke-width="6"/>
<text class="species" transform="rotate(90 1447.5,915)" x="1432.5" y="897.5">
EwApS
</text>
<path d="M1515,910.5 L1515,532.5 L1488,532.5 M1500,910.5 L1500,547.5 L1477.5,547.5" fill="none" opacity="0.9" stroke="pink" stroke-width="6"/>
<path d="M1500,907.5 L1500,922.5 L1515,922.5 L1515,907.5" fill="none" opacity="0.9" stroke="pink" stroke-width="6"/>
<text class="species" transform="rotate(90 1507.5,915)" x="1492.5" y="897.5">
EwDaI
</text>
<path d="M1597.5,910.5 L1597.5,412.5 L1487.2969,412.5 M1582.5,910.5 L1582.5,427.5 L1476.7969,427.5" fill="none" opacity="0.9" stroke="pink" stroke-width="6"/>
<path d="M1582.5,907.5 L1582.5,922.5 L1597.5,922.5 L1597.5,907.5" fill="none" opacity="0.9" stroke="pink" stroke-width="6"/>
<text class="species" transform="rotate(90 1590,915)" x="1575" y="897.5">
EwBiE
</text>
<path d="M1702.5,415.5 L1702.5,352.5 L1596.3984,352.5 M1687.5,415.5 L1687.5,367.5 L1585.8984,367.5" fill="none" opacity="0.9" stroke="pink" stroke-width="6"/>
<path d="M1657.5,910.5 L1657.5,412.5 L1684.5,412.5 M1672.5,910.5 L1672.5,427.5 L1695,427.5" fill="none" opacity="0.9" stroke="pink" stroke-width="6"/>
<path d="M1657.5,907.5 L1657.5,922.5 L1672.5,922.5 L1672.5,907.5" fill="none" opacity="0.9" stroke="pink" stroke-width="6"/>
<text class="species" transform="rotate(90 1665,915)" x="1650" y="897.5">
Pantoea_gaviniae_DSM_22758
</text>
<path d="M1732.5,910.5 L1732.5,412.5 L1705.5,412.5 M1717.5,910.5 L1717.5,427.5 L1695,427.5" fill="none" opacity="0.9" stroke="pink" stroke-width="6"/>
<path d="M1717.5,907.5 L1717.5,922.5 L1732.5,922.5 L1732.5,907.5" fill="none" opacity="0.9" stroke="pink" stroke-width="6"/>
<text class="species" transform="rotate(90 1725,915)" x="1710" y="897.5">
Pantoea_calida_DSM_22759
</text>
<path d="M1996.875,295.5 L1996.875,232.5 L1583.5371,232.5 M1981.875,295.5 L1981.875,247.5 L1573.0371,247.5" fill="none" opacity="0.9" stroke="pink" stroke-width="6"/>
<path d="M1893.75,355.5 L1893.75,292.5 L1978.875,292.5 M1908.75,355.5 L1908.75,307.5 L1989.375,307.5" fill="none" opacity="0.9" stroke="pink" stroke-width="6"/>
<path d="M1822.5,408 L1822.5,352.5 L1890.75,352.5 M1852.5,408 L1852.5,367.5 L1901.25,367.5" fill="none" opacity="0.9" stroke="pink" stroke-width="6"/>
<path d="M1800,910.5 L1800,405 L1819.5,405 M1815,910.5 L1815,435 L1837.5,435" fill="none" opacity="0.9" stroke="pink" stroke-width="6"/>
<path d="M1800,907.5 L1800,922.5 L1815,922.5 L1815,907.5" fill="none" opacity="0.9" stroke="pink" stroke-width="6"/>
<text class="species" transform="rotate(90 1807.5,915)" x="1792.5" y="897.5">
HCURT
</text>
<path d="M1875,910.5 L1875,405 L1855.5,405 M1860,910.5 L1860,435 L1837.5,435" fill="none" opacity="0.9" stroke="pink" stroke-width="6"/>
<path d="M1860,907.5 L1860,922.5 L1875,922.5 L1875,907.5" fill="none" opacity="0.9" stroke="pink" stroke-width="6"/>
<text class="species" transform="rotate(90 1867.5,915)" x="1852.5" y="897.5">
HCURV
</text>
<path d="M1972.5,415.5 L1972.5,352.5 L1911.75,352.5 M1957.5,415.5 L1957.5,367.5 L1901.25,367.5" fill="none" opacity="0.9" stroke="pink" stroke-width="6"/>
<path d="M1927.5,910.5 L1927.5,412.5 L1954.5,412.5 M1942.5,910.5 L1942.5,427.5 L1965,427.5" fill="none" opacity="0.9" stroke="pink" stroke-width="6"/>
<path d="M1927.5,907.5 L1927.5,922.5 L1942.5,922.5 L1942.5,907.5" fill="none" opacity="0.9" stroke="pink" stroke-width="6"/>
<text class="species" transform="rotate(90 1935,915)" x="1920" y="897.5">
Hamiltonella_defensa_ZA17
</text>
<path d="M2002.5,910.5 L2002.5,412.5 L1975.5,412.5 M1987.5,910.5 L1987.5,427.5 L1965,427.5" fill="none" opacity="0.9" stroke="pink" stroke-width="6"/>
<path d="M1987.5,907.5 L1987.5,922.5 L2002.5,922.5 L2002.5,907.5" fill="none" opacity="0.9" stroke="pink" stroke-width="6"/>
<text class="species" transform="rotate(90 1995,915)" x="1980" y="897.5">
Hamiltonella_defensa_5AT
</text>
<path d="M2085,910.5 L2085,292.5 L1999.875,292.5 M2070,910.5 L2070,307.5 L1989.375,307.5" fill="none" opacity="0.9" stroke="pink" stroke-width="6"/>
<path d="M2070,907.5 L2070,922.5 L2085,922.5 L2085,907.5" fill="none" opacity="0.9" stroke="pink" stroke-width="6"/>
<text class="species" transform="rotate(90 2077.5,915)" x="2062.5" y="897.5">
Yersinia_pestis_CO92
</text>
<path d="M2190,235.5 L2190,172.5 L1888.2686,172.5 M2175,235.5 L2175,187.5 L1877.7686,187.5" fill="none" opacity="0.9" stroke="pink" stroke-width="6"/>
<path d="M2145,910.5 L2145,232.5 L2172,232.5 M2160,910.5 L2160,247.5 L2182.5,247.5" fill="none" opacity="0.9" stroke="pink" stroke-width="6"/>
<path d="M2145,907.5 L2145,922.5 L2160,922.5 L2160,907.5" fill="none" opacity="0.9" stroke="pink" stroke-width="6"/>
<text class="species" transform="rotate(90 2152.5,915)" x="2137.5" y="897.5">
Sodalis_praecaptivus_HS1
</text>
<path d="M2220,910.5 L2220,232.5 L2193,232.5 M2205,910.5 L2205,247.5 L2182.5,247.5" fill="none" opacity="0.9" stroke="pink" stroke-width="6"/>
<path d="M2205,907.5 L2205,922.5 L2220,922.5 L2220,907.5" fill="none" opacity="0.9" stroke="pink" stroke-width="6"/>
<text class="species" transform="rotate(90 2212.5,915)" x="2197.5" y="897.5">
Sodalis_pierantonius_SOPE
</text>
<path d="M2325,175.5 L2325,112.5 L2108.1343,112.5 M2310,175.5 L2310,127.5 L2097.6343,127.5" fill="none" opacity="0.9" stroke="pink" stroke-width="6"/>
<path d="M2280,910.5 L2280,172.5 L2307,172.5 M2295,910.5 L2295,187.5 L2317.5,187.5" fill="none" opacity="0.9" stroke="pink" stroke-width="6"/>
<path d="M2280,907.5 L2280,922.5 L2295,922.5 L2295,907.5" fill="none" opacity="0.9" stroke="pink" stroke-width="6"/>
<text class="species" transform="rotate(90 2287.5,915)" x="2272.5" y="897.5">
Photorhabdus_luminescens_TTO1
</text>
<path d="M2355,910.5 L2355,172.5 L2328,172.5 M2340,910.5 L2340,187.5 L2317.5,187.5" fill="none" opacity="0.9" stroke="pink" stroke-width="6"/>
<path d="M2340,907.5 L2340,922.5 L2355,922.5 L2355,907.5" fill="none" opacity="0.9" stroke="pink" stroke-width="6"/>
<text class="species" transform="rotate(90 2347.5,915)" x="2332.5" y="897.5">
Photorhabdus_asymbiotica_ATCC43949
</text>
<path d="M2097.6343,114 l-6,-6 l12,0 z" fill="rgb(38, 103, 155)" opacity="0.9" stroke="rgb(38, 103, 155)" stroke-width="1"/>
<circle cx="2097.6343" cy="120" fill="rgb(38, 103, 155)" opacity="0.9" r="3" stroke="rgb(38, 103, 155)" stroke-width="1"/>
<path d="M1877.7686,180 L1877.7686,120 L2097.6343,120" fill="none" opacity="0.9" stroke="rgb(38, 103, 155)" stroke-width="3"/>
<circle cx="1877.7686" cy="180" fill="rgb(38, 103, 155)" opacity="0.9" r="3" stroke="rgb(38, 103, 155)" stroke-width="1"/>
<path d="M1573.0371,240 L1573.0371,180 L1877.7686,180" fill="none" opacity="0.9" stroke="rgb(38, 103, 155)" stroke-width="3"/>
<circle cx="1573.0371" cy="240" fill="rgb(38, 103, 155)" opacity="0.9" r="3" stroke="rgb(38, 103, 155)" stroke-width="1"/>
<path d="M1156.6992,300 L1156.6992,240 L1573.0371,240" fill="none" opacity="0.9" stroke="rgb(38, 103, 155)" stroke-width="3"/>
<circle cx="1156.6992" cy="300" fill="rgb(38, 103, 155)" opacity="0.9" r="3" stroke="rgb(38, 103, 155)" stroke-width="1"/>
<path d="M727.5,922.5 L727.5,300 L1156.6992,300" fill="none" opacity="0.9" stroke="rgb(38, 103, 155)" stroke-width="3"/>
<path d="M727,922 l0,1 l1,0 l0,-1 z" fill="red" opacity="0.9" stroke="red" stroke-width="3"/>
<text class="gene_0" transform="rotate(90 722.5,937.5)" x="722.5" y="937.5">
Escherichia_coli_K12_MG1655
</text>
<path d="M1585.8984,360 L1585.8984,300 L1156.6992,300" fill="none" opacity="0.9" stroke="rgb(38, 103, 155)" stroke-width="3"/>
<circle cx="1585.8984" cy="360" fill="rgb(38, 103, 155)" opacity="0.9" r="3" stroke="rgb(38, 103, 155)" stroke-width="1"/>
<path d="M1476.7969,420 L1476.7969,360 L1585.8984,360" fill="none" opacity="0.9" stroke="rgb(38, 103, 155)" stroke-width="3"/>
<circle cx="1476.7969" cy="420" fill="rgb(38, 103, 155)" opacity="0.9" r="3" stroke="rgb(38, 103, 155)" stroke-width="1"/>
<path d="M1363.5938,480 L1363.5938,420 L1476.7969,420" fill="none" opacity="0.9" stroke="rgb(38, 103, 155)" stroke-width="3"/>
<circle cx="1363.5938" cy="480" fill="rgb(38, 103, 155)" opacity="0.9" r="3" stroke="rgb(38, 103, 155)" stroke-width="1"/>
<path d="M1249.6875,540 L1249.6875,480 L1363.5938,480" fill="none" opacity="0.9" stroke="rgb(38, 103, 155)" stroke-width="3"/>
<circle cx="1249.6875" cy="540" fill="rgb(38, 103, 155)" opacity="0.9" r="3" stroke="rgb(38, 103, 155)" stroke-width="1"/>
<path d="M1119.375,592.5 L1119.375,540 L1249.6875,540" fill="none" opacity="0.9" stroke="rgb(38, 103, 155)" stroke-width="3"/>
<path d="M1117.375,590.5 l0,4 l4,0 l0,-4 z" fill="rgb(38, 103, 155)" opacity="0.9" stroke="rgb(38, 103, 155)" stroke-width="3" transform="rotate(45 1119.375 592.5)"/>
<path d="M396.09375 120 L 396.09375 105M396.09375 116.25L 392.34375 112.5M396.09375 116.25L 399.84375 112.5M396.09375 105 Q 757.7344 288.75 1119.375 592.5" fill="none" opacity="0.9" stroke="rgb(38, 103, 155)" stroke-dasharray="1, 1" stroke-width="3"/>
<circle cx="396.09375" cy="120" fill="rgb(38, 103, 155)" opacity="0.9" r="3" stroke="rgb(38, 103, 155)" stroke-width="1"/>
<path d="M207.1875,180 L207.1875,120 L396.09375,120" fill="none" opacity="0.9" stroke="rgb(38, 103, 155)" stroke-width="3"/>
<circle cx="207.1875" cy="180" fill="rgb(38, 103, 155)" opacity="0.9" r="3" stroke="rgb(38, 103, 155)" stroke-width="1"/>
<path d="M56.25,240 L56.25,180 L207.1875,180" fill="none" opacity="0.9" stroke="rgb(38, 103, 155)" stroke-width="3"/>
<circle cx="56.25" cy="240" fill="rgb(38, 103, 155)" opacity="0.9" r="3" stroke="rgb(38, 103, 155)" stroke-width="1"/>
<path d="M0,922.5 L0,240 L56.25,240" fill="none" opacity="0.9" stroke="rgb(38, 103, 155)" stroke-width="3"/>
<path d="M-0.5,922 l0,1 l1,0 l0,-1 z" fill="red" opacity="0.9" stroke="red" stroke-width="3"/>
<text class="gene_0" transform="rotate(90 -5,937.5)" x="-5" y="937.5">
ECUMA
</text>
<path d="M112.5,300 L112.5,240 L56.25,240" fill="none" opacity="0.9" stroke="rgb(38, 103, 155)" stroke-width="3"/>
<circle cx="112.5" cy="300" fill="rgb(38, 103, 155)" opacity="0.9" r="3" stroke="rgb(38, 103, 155)" stroke-width="1"/>
<path d="M82.5,922.5 L82.5,300 L112.5,300" fill="none" opacity="0.9" stroke="rgb(38, 103, 155)" stroke-width="3"/>
<path d="M82,922 l0,1 l1,0 l0,-1 z" fill="red" opacity="0.9" stroke="red" stroke-width="3"/>
<text class="gene_0" transform="rotate(90 77.5,937.5)" x="77.5" y="937.5">
EKOCA
</text>
<path d="M142.5,922.5 L142.5,300 L112.5,300" fill="none" opacity="0.9" stroke="rgb(38, 103, 155)" stroke-width="3"/>
<path d="M142,922 l0,1 l1,0 l0,-1 z" fill="red" opacity="0.9" stroke="red" stroke-width="3"/>
<text class="gene_0" transform="rotate(90 137.5,937.5)" x="137.5" y="937.5">
ELAFE
</text>
<path d="M358.125,240 L358.125,180 L207.1875,180" fill="none" opacity="0.9" stroke="rgb(38, 103, 155)" stroke-width="3"/>
<circle cx="358.125" cy="240" fill="rgb(38, 103, 155)" opacity="0.9" r="3" stroke="rgb(38, 103, 155)" stroke-width="1"/>
<path d="M273.75,300 L273.75,240 L358.125,240" fill="none" opacity="0.9" stroke="rgb(38, 103, 155)" stroke-width="3"/>
<circle cx="273.75" cy="300" fill="rgb(38, 103, 155)" opacity="0.9" r="3" stroke="rgb(38, 103, 155)" stroke-width="1"/>
<path d="M217.5,922.5 L217.5,300 L273.75,300" fill="none" opacity="0.9" stroke="rgb(38, 103, 155)" stroke-width="3"/>
<path d="M217,922 l0,1 l1,0 l0,-1 z" fill="red" opacity="0.9" stroke="red" stroke-width="3"/>
<text class="gene_0" transform="rotate(90 212.5,937.5)" x="212.5" y="937.5">
EPSPA
</text>
<path d="M330,360 L330,300 L273.75,300" fill="none" opacity="0.9" stroke="rgb(38, 103, 155)" stroke-width="3"/>
<circle cx="330" cy="360" fill="rgb(38, 103, 155)" opacity="0.9" r="3" stroke="rgb(38, 103, 155)" stroke-width="1"/>
<path d="M300,922.5 L300,360 L330,360" fill="none" opacity="0.9" stroke="rgb(38, 103, 155)" stroke-width="3"/>
<path d="M299.5,922 l0,1 l1,0 l0,-1 z" fill="red" opacity="0.9" stroke="red" stroke-width="3"/>
<text class="gene_0" transform="rotate(90 295,937.5)" x="295" y="937.5">
ESPPA
</text>
<path d="M360,922.5 L360,360 L330,360" fill="none" opacity="0.9" stroke="rgb(38, 103, 155)" stroke-width="3"/>
<path d="M359.5,922 l0,1 l1,0 l0,-1 z" fill="red" opacity="0.9" stroke="red" stroke-width="3"/>
<text class="gene_0" transform="rotate(90 355,937.5)" x="355" y="937.5">
ESPPS
</text>
<path d="M442.5,922.5 L442.5,240 L358.125,240" fill="none" opacity="0.9" stroke="rgb(38, 103, 155)" stroke-width="3"/>
<path d="M442,922 l0,1 l1,0 l0,-1 z" fill="red" opacity="0.9" stroke="red" stroke-width="3"/>
<text class="gene_0" transform="rotate(90 437.5,937.5)" x="437.5" y="937.5">
EPSTX
</text>
<path d="M592.5,172.5 L592.5,120 L396.09375,120" fill="none" opacity="0.9" stroke="rgb(38, 103, 155)" stroke-width="3"/>
<circle cx="592.5" cy="172.5" fill="rgb(38, 103, 155)" opacity="0.9" r="3" stroke="rgb(38, 103, 155)" stroke-width="1"/>
<path d="M517.5,930 L517.5,172.5 L592.5,172.5" fill="none" opacity="0.9" stroke="rgb(38, 103, 155)" stroke-width="3"/>
<path d="M517,929.5 l0,1 l1,0 l0,-1 z" fill="red" opacity="0.9" stroke="red" stroke-width="3"/>
<text class="gene_0" transform="rotate(90 512.5,945)" x="512.5" y="945">
ECURT
</text>
<path d="M652.5,930 L652.5,172.5 L592.5,172.5" fill="none" opacity="0.9" stroke="rgb(38, 103, 155)" stroke-width="3"/>
<path d="M652,929.5 l0,1 l1,0 l0,-1 z" fill="red" opacity="0.9" stroke="red" stroke-width="3"/>
<text class="gene_0" transform="rotate(90 647.5,945)" x="647.5" y="945">
ECURV
</text>
<path d="M1134.375,607.5 L1134.375,592.5 L1119.375,592.5" fill="none" opacity="0.9" stroke="rgb(38, 103, 155)" stroke-width="3"/>
<path d="M1134.375,603.5 l0,8 M1130.375,607.5 l8,0" fill="rgb(38, 103, 155)" opacity="0.9" stroke="rgb(38, 103, 155)" stroke-width="2" transform="rotate(45 1134.375 607.5)"/>
<path d="M1372.5,922.5 L1372.5,540 L1249.6875,540" fill="none" opacity="0.9" stroke="rgb(38, 103, 155)" stroke-width="3"/>
<path d="M1372,922 l0,1 l1,0 l0,-1 z" fill="red" opacity="0.9" stroke="red" stroke-width="3"/>
<text class="gene_0" transform="rotate(90 1367.5,937.5)" x="1367.5" y="937.5">
EwAmC
</text>
<path d="M1477.5,540 L1477.5,480 L1363.5938,480" fill="none" opacity="0.9" stroke="rgb(38, 103, 155)" stroke-width="3"/>
<circle cx="1477.5" cy="540" fill="rgb(38, 103, 155)" opacity="0.9" r="3" stroke="rgb(38, 103, 155)" stroke-width="1"/>
<path d="M1447.5,922.5 L1447.5,540 L1477.5,540" fill="none" opacity="0.9" stroke="rgb(38, 103, 155)" stroke-width="3"/>
<path d="M1447,922 l0,1 l1,0 l0,-1 z" fill="red" opacity="0.9" stroke="red" stroke-width="3"/>
<text class="gene_0" transform="rotate(90 1442.5,937.5)" x="1442.5" y="937.5">
EwApS
</text>
<path d="M1507.5,922.5 L1507.5,540 L1477.5,540" fill="none" opacity="0.9" stroke="rgb(38, 103, 155)" stroke-width="3"/>
<path d="M1507,922 l0,1 l1,0 l0,-1 z" fill="red" opacity="0.9" stroke="red" stroke-width="3"/>
<text class="gene_0" transform="rotate(90 1502.5,937.5)" x="1502.5" y="937.5">
EwDaI
</text>
<path d="M1590,922.5 L1590,420 L1476.7969,420" fill="none" opacity="0.9" stroke="rgb(38, 103, 155)" stroke-width="3"/>
<path d="M1589.5,922 l0,1 l1,0 l0,-1 z" fill="red" opacity="0.9" stroke="red" stroke-width="3"/>
<text class="gene_0" transform="rotate(90 1585,937.5)" x="1585" y="937.5">
EwBiE
</text>
<path d="M1695,420 L1695,360 L1585.8984,360" fill="none" opacity="0.9" stroke="rgb(38, 103, 155)" stroke-width="3"/>
<circle cx="1695" cy="420" fill="rgb(38, 103, 155)" opacity="0.9" r="3" stroke="rgb(38, 103, 155)" stroke-width="1"/>
<path d="M1665,922.5 L1665,420 L1695,420" fill="none" opacity="0.9" stroke="rgb(38, 103, 155)" stroke-width="3"/>
<path d="M1664.5,922 l0,1 l1,0 l0,-1 z" fill="red" opacity="0.9" stroke="red" stroke-width="3"/>
<text class="gene_0" transform="rotate(90 1660,937.5)" x="1660" y="937.5">
Pantoea_gaviniae_DSM_22758
</text>
<path d="M1725,922.5 L1725,420 L1695,420" fill="none" opacity="0.9" stroke="rgb(38, 103, 155)" stroke-width="3"/>
<path d="M1724.5,922 l0,1 l1,0 l0,-1 z" fill="red" opacity="0.9" stroke="red" stroke-width="3"/>
<text class="gene_0" transform="rotate(90 1720,937.5)" x="1720" y="937.5">
Pantoea_calida_DSM_22759
</text>
<path d="M1989.375,300 L1989.375,240 L1573.0371,240" fill="none" opacity="0.9" stroke="rgb(38, 103, 155)" stroke-width="3"/>
<circle cx="1989.375" cy="300" fill="rgb(38, 103, 155)" opacity="0.9" r="3" stroke="rgb(38, 103, 155)" stroke-width="1"/>
<path d="M1901.25,360 L1901.25,300 L1989.375,300" fill="none" opacity="0.9" stroke="rgb(38, 103, 155)" stroke-width="3"/>
<circle cx="1901.25" cy="360" fill="rgb(38, 103, 155)" opacity="0.9" r="3" stroke="rgb(38, 103, 155)" stroke-width="1"/>
<path d="M1830,412.5 L1830,360 L1901.25,360" fill="none" opacity="0.9" stroke="rgb(38, 103, 155)" stroke-width="3"/>
<path d="M1828,410.5 l0,4 l4,0 l0,-4 z" fill="rgb(38, 103, 155)" opacity="0.9" stroke="rgb(38, 103, 155)" stroke-width="3" transform="rotate(45 1830 412.5)"/>
<path d="M577.5 187.5 L 577.5 172.5M577.5 183.75L 573.75 180M577.5 183.75L 581.25 180M577.5 172.5 Q 1203.75 232.5 1830 412.5" fill="none" opacity="0.9" stroke="rgb(38, 103, 155)" stroke-dasharray="1, 1" stroke-width="3"/>
<circle cx="577.5" cy="187.5" fill="rgb(38, 103, 155)" opacity="0.9" r="3" stroke="rgb(38, 103, 155)" stroke-width="1"/>
<path d="M532.5,930 L532.5,187.5 L577.5,187.5" fill="none" opacity="0.9" stroke="rgb(38, 103, 155)" stroke-width="3"/>
<path d="M532,929.5 l0,1 l1,0 l0,-1 z" fill="red" opacity="0.9" stroke="red" stroke-width="3"/>
<text class="gene_0" transform="rotate(90 527.5,945)" x="527.5" y="945">
HCURT
</text>
<path d="M637.5,930 L637.5,187.5 L577.5,187.5" fill="none" opacity="0.9" stroke="rgb(38, 103, 155)" stroke-width="3"/>
<path d="M637,929.5 l0,1 l1,0 l0,-1 z" fill="red" opacity="0.9" stroke="red" stroke-width="3"/>
<text class="gene_0" transform="rotate(90 632.5,945)" x="632.5" y="945">
HCURV
</text>
<path d="M1845,427.5 L1845,412.5 L1830,412.5" fill="none" opacity="0.9" stroke="rgb(38, 103, 155)" stroke-width="3"/>
<path d="M1845,423.5 l0,8 M1841,427.5 l8,0" fill="rgb(38, 103, 155)" opacity="0.9" stroke="rgb(38, 103, 155)" stroke-width="2" transform="rotate(45 1845 427.5)"/>
<path d="M1965,420 L1965,360 L1901.25,360" fill="none" opacity="0.9" stroke="rgb(38, 103, 155)" stroke-width="3"/>
<circle cx="1965" cy="420" fill="rgb(38, 103, 155)" opacity="0.9" r="3" stroke="rgb(38, 103, 155)" stroke-width="1"/>
<path d="M1935,922.5 L1935,420 L1965,420" fill="none" opacity="0.9" stroke="rgb(38, 103, 155)" stroke-width="3"/>
<path d="M1934.5,922 l0,1 l1,0 l0,-1 z" fill="red" opacity="0.9" stroke="red" stroke-width="3"/>
<text class="gene_0" transform="rotate(90 1930,937.5)" x="1930" y="937.5">
Hamiltonella_defensa_ZA17
</text>
<path d="M1995,922.5 L1995,420 L1965,420" fill="none" opacity="0.9" stroke="rgb(38, 103, 155)" stroke-width="3"/>
<path d="M1994.5,922 l0,1 l1,0 l0,-1 z" fill="red" opacity="0.9" stroke="red" stroke-width="3"/>
<text class="gene_0" transform="rotate(90 1990,937.5)" x="1990" y="937.5">
Hamiltonella_defensa_5AT
</text>
<path d="M2077.5,922.5 L2077.5,300 L1989.375,300" fill="none" opacity="0.9" stroke="rgb(38, 103, 155)" stroke-width="3"/>
<path d="M2077,922 l0,1 l1,0 l0,-1 z" fill="red" opacity="0.9" stroke="red" stroke-width="3"/>
<text class="gene_0" transform="rotate(90 2072.5,937.5)" x="2072.5" y="937.5">
Yersinia_pestis_CO92
</text>
<path d="M2182.5,240 L2182.5,180 L1877.7686,180" fill="none" opacity="0.9" stroke="rgb(38, 103, 155)" stroke-width="3"/>
<circle cx="2182.5" cy="240" fill="rgb(38, 103, 155)" opacity="0.9" r="3" stroke="rgb(38, 103, 155)" stroke-width="1"/>
<path d="M2152.5,922.5 L2152.5,240 L2182.5,240" fill="none" opacity="0.9" stroke="rgb(38, 103, 155)" stroke-width="3"/>
<path d="M2152,922 l0,1 l1,0 l0,-1 z" fill="red" opacity="0.9" stroke="red" stroke-width="3"/>
<text class="gene_0" transform="rotate(90 2147.5,937.5)" x="2147.5" y="937.5">
Sodalis_praecaptivus_HS1
</text>
<path d="M2212.5,922.5 L2212.5,240 L2182.5,240" fill="none" opacity="0.9" stroke="rgb(38, 103, 155)" stroke-width="3"/>
<path d="M2212,922 l0,1 l1,0 l0,-1 z" fill="red" opacity="0.9" stroke="red" stroke-width="3"/>
<text class="gene_0" transform="rotate(90 2207.5,937.5)" x="2207.5" y="937.5">
Sodalis_pierantonius_SOPE
</text>
<path d="M2317.5,180 L2317.5,120 L2097.6343,120" fill="none" opacity="0.9" stroke="rgb(38, 103, 155)" stroke-width="3"/>
<circle cx="2317.5" cy="180" fill="rgb(38, 103, 155)" opacity="0.9" r="3" stroke="rgb(38, 103, 155)" stroke-width="1"/>
<path d="M2287.5,922.5 L2287.5,180 L2317.5,180" fill="none" opacity="0.9" stroke="rgb(38, 103, 155)" stroke-width="3"/>
<path d="M2287,922 l0,1 l1,0 l0,-1 z" fill="red" opacity="0.9" stroke="red" stroke-width="3"/>
<text class="gene_0" transform="rotate(90 2282.5,937.5)" x="2282.5" y="937.5">
Photorhabdus_luminescens_TTO1
</text>
<path d="M2347.5,922.5 L2347.5,180 L2317.5,180" fill="none" opacity="0.9" stroke="rgb(38, 103, 155)" stroke-width="3"/>
<path d="M2347,922 l0,1 l1,0 l0,-1 z" fill="red" opacity="0.9" stroke="red" stroke-width="3"/>
<text class="gene_0" transform="rotate(90 2342.5,937.5)" x="2342.5" y="937.5">
Photorhabdus_asymbiotica_ATCC43949
</text>
</g>
</svg>