<svg height="507.5" viewBox="-7.5 22.5 1995 588.25" width="1965" xmlns="http://www.w3.org/2000/svg">
<style>
.species { font: italic ; font-size: 12px; fill: orange; } .gene_0 { font-size: 10px; fill:rgb(98, 189, 219); }  .gene_1 { font-size: 10px; fill:rgb(155, 56, 209); }  .gene_2 { font-size: 10px; fill:rgb(49, 224, 98); } 
</style>
<g>
<path d="M737.34375,115.5 L737.34375,52.5 L1168.6406,52.5 M752.34375,115.5 L752.34375,67.5 L1179.1406,67.5" fill="none" opacity="0.9" stroke="pink" stroke-width="6"/>
<path d="M292.5,175.5 L292.5,112.5 L734.34375,112.5 M307.5,175.5 L307.5,127.5 L744.84375,127.5" fill="none" opacity="0.9" stroke="pink" stroke-width="6"/>
<path d="M78.75,235.5 L78.75,172.5 L289.5,172.5 M93.75,235.5 L93.75,187.5 L300,187.5" fill="none" opacity="0.9" stroke="pink" stroke-width="6"/>
<path d="M22.5,295.5 L22.5,232.5 L75.75,232.5 M37.5,295.5 L37.5,247.5 L86.25,247.5" fill="none" opacity="0.9" stroke="pink" stroke-width="6"/>
<path d="M-7.5,490.5 L-7.5,292.5 L19.5,292.5 M7.5,490.5 L7.5,307.5 L30,307.5" fill="none" opacity="0.9" stroke="pink" stroke-width="6"/>
<path d="M-7.5,490.5 L-7.5,510 L7.5,510 L7.5,490.5" fill="none" opacity="0.9" stroke="pink" stroke-width="6"/>
<text class="species" transform="rotate(90 0,495)" x="-15" y="477.5">
p0_6
</text>
<path d="M67.5,490.5 L67.5,292.5 L40.5,292.5 M52.5,490.5 L52.5,307.5 L30,307.5" fill="none" opacity="0.9" stroke="pink" stroke-width="6"/>
<path d="M52.5,490.5 L52.5,510 L67.5,510 L67.5,490.5" fill="none" opacity="0.9" stroke="pink" stroke-width="6"/>
<text class="species" transform="rotate(90 60,495)" x="45" y="477.5">
p0_7
</text>
<path d="M150,490.5 L150,232.5 L96.75,232.5 M135,490.5 L135,247.5 L86.25,247.5" fill="none" opacity="0.9" stroke="pink" stroke-width="6"/>
<path d="M135,490.5 L135,510 L150,510 L150,490.5" fill="none" opacity="0.9" stroke="pink" stroke-width="6"/>
<text class="species" transform="rotate(90 142.5,495)" x="127.5" y="477.5">
p0_8
</text>
<path d="M521.25,235.5 L521.25,172.5 L310.5,172.5 M506.25,235.5 L506.25,187.5 L300,187.5" fill="none" opacity="0.9" stroke="pink" stroke-width="6"/>
<path d="M354.375,295.5 L354.375,232.5 L503.25,232.5 M369.375,295.5 L369.375,247.5 L513.75,247.5" fill="none" opacity="0.9" stroke="pink" stroke-width="6"/>
<path d="M266.25,355.5 L266.25,292.5 L351.375,292.5 M281.25,355.5 L281.25,307.5 L361.875,307.5" fill="none" opacity="0.9" stroke="pink" stroke-width="6"/>
<path d="M210,490.5 L210,352.5 L263.25,352.5 M225,490.5 L225,367.5 L273.75,367.5" fill="none" opacity="0.9" stroke="pink" stroke-width="6"/>
<path d="M210,490.5 L210,510 L225,510 L225,490.5" fill="none" opacity="0.9" stroke="pink" stroke-width="6"/>
<text class="species" transform="rotate(90 217.5,495)" x="202.5" y="477.5">
p0_12
</text>
<path d="M345,408 L345,352.5 L284.25,352.5 M315,408 L315,367.5 L273.75,367.5" fill="none" opacity="0.9" stroke="pink" stroke-width="6"/>
<path d="M292.5,490.5 L292.5,405 L312,405 M307.5,490.5 L307.5,435 L330,435" fill="none" opacity="0.9" stroke="pink" stroke-width="6"/>
<path d="M292.5,490.5 L292.5,510 L307.5,510 L307.5,490.5" fill="none" opacity="0.9" stroke="pink" stroke-width="6"/>
<text class="species" transform="rotate(90 300,495)" x="285" y="477.5">
p0_14
</text>
<path d="M367.5,490.5 L367.5,405 L348,405 M352.5,490.5 L352.5,435 L330,435" fill="none" opacity="0.9" stroke="pink" stroke-width="6"/>
<path d="M352.5,490.5 L352.5,510 L367.5,510 L367.5,490.5" fill="none" opacity="0.9" stroke="pink" stroke-width="6"/>
<text class="species" transform="rotate(90 360,495)" x="345" y="477.5">
p0_15
</text>
<path d="M457.5,490.5 L457.5,292.5 L372.375,292.5 M442.5,490.5 L442.5,307.5 L361.875,307.5" fill="none" opacity="0.9" stroke="pink" stroke-width="6"/>
<path d="M442.5,490.5 L442.5,510 L457.5,510 L457.5,490.5" fill="none" opacity="0.9" stroke="pink" stroke-width="6"/>
<text class="species" transform="rotate(90 450,495)" x="435" y="477.5">
p0_16
</text>
<path d="M673.125,295.5 L673.125,232.5 L524.25,232.5 M658.125,295.5 L658.125,247.5 L513.75,247.5" fill="none" opacity="0.9" stroke="pink" stroke-width="6"/>
<path d="M573.75,355.5 L573.75,292.5 L655.125,292.5 M588.75,355.5 L588.75,307.5 L665.625,307.5" fill="none" opacity="0.9" stroke="pink" stroke-width="6"/>
<path d="M517.5,490.5 L517.5,352.5 L570.75,352.5 M532.5,490.5 L532.5,367.5 L581.25,367.5" fill="none" opacity="0.9" stroke="pink" stroke-width="6"/>
<path d="M517.5,490.5 L517.5,510 L532.5,510 L532.5,490.5" fill="none" opacity="0.9" stroke="pink" stroke-width="6"/>
<text class="species" transform="rotate(90 525,495)" x="510" y="477.5">
p0_19
</text>
<path d="M645,415.5 L645,352.5 L591.75,352.5 M630,415.5 L630,367.5 L581.25,367.5" fill="none" opacity="0.9" stroke="pink" stroke-width="6"/>
<path d="M600,490.5 L600,412.5 L627,412.5 M615,490.5 L615,427.5 L637.5,427.5" fill="none" opacity="0.9" stroke="pink" stroke-width="6"/>
<path d="M600,490.5 L600,510 L615,510 L615,490.5" fill="none" opacity="0.9" stroke="pink" stroke-width="6"/>
<text class="species" transform="rotate(90 607.5,495)" x="592.5" y="477.5">
p0_21
</text>
<path d="M675,490.5 L675,412.5 L648,412.5 M660,490.5 L660,427.5 L637.5,427.5" fill="none" opacity="0.9" stroke="pink" stroke-width="6"/>
<path d="M660,490.5 L660,510 L675,510 L675,490.5" fill="none" opacity="0.9" stroke="pink" stroke-width="6"/>
<text class="species" transform="rotate(90 667.5,495)" x="652.5" y="477.5">
p0_22
</text>
<path d="M757.5,490.5 L757.5,292.5 L676.125,292.5 M742.5,490.5 L742.5,307.5 L665.625,307.5" fill="none" opacity="0.9" stroke="pink" stroke-width="6"/>
<path d="M742.5,490.5 L742.5,510 L757.5,510 L757.5,490.5" fill="none" opacity="0.9" stroke="pink" stroke-width="6"/>
<text class="species" transform="rotate(90 750,495)" x="735" y="477.5">
p0_23
</text>
<path d="M1197.1875,175.5 L1197.1875,112.5 L755.34375,112.5 M1182.1875,175.5 L1182.1875,127.5 L744.84375,127.5" fill="none" opacity="0.9" stroke="pink" stroke-width="6"/>
<path d="M1029.375,235.5 L1029.375,172.5 L1179.1875,172.5 M1044.375,235.5 L1044.375,187.5 L1189.6875,187.5" fill="none" opacity="0.9" stroke="pink" stroke-width="6"/>
<path d="M903.75,295.5 L903.75,232.5 L1026.375,232.5 M918.75,295.5 L918.75,247.5 L1036.875,247.5" fill="none" opacity="0.9" stroke="pink" stroke-width="6"/>
<path d="M817.5,490.5 L817.5,292.5 L900.75,292.5 M832.5,490.5 L832.5,307.5 L911.25,307.5" fill="none" opacity="0.9" stroke="pink" stroke-width="6"/>
<path d="M817.5,490.5 L817.5,510 L832.5,510 L832.5,490.5" fill="none" opacity="0.9" stroke="pink" stroke-width="6"/>
<text class="species" transform="rotate(90 825,495)" x="810" y="477.5">
p0_27
</text>
<path d="M1005,355.5 L1005,292.5 L921.75,292.5 M990,355.5 L990,307.5 L911.25,307.5" fill="none" opacity="0.9" stroke="pink" stroke-width="6"/>
<path d="M930,415.5 L930,352.5 L987,352.5 M945,415.5 L945,367.5 L997.5,367.5" fill="none" opacity="0.9" stroke="pink" stroke-width="6"/>
<path d="M900,490.5 L900,412.5 L927,412.5 M915,490.5 L915,427.5 L937.5,427.5" fill="none" opacity="0.9" stroke="pink" stroke-width="6"/>
<path d="M900,490.5 L900,510 L915,510 L915,490.5" fill="none" opacity="0.9" stroke="pink" stroke-width="6"/>
<text class="species" transform="rotate(90 907.5,495)" x="892.5" y="477.5">
p0_30
</text>
<path d="M982.5,483 L982.5,412.5 L948,412.5 M952.5,483 L952.5,427.5 L937.5,427.5" fill="none" opacity="0.9" stroke="pink" stroke-width="6"/>
<path d="M952.5,483 L952.5,510 L982.5,510 L982.5,483" fill="none" opacity="0.9" stroke="pink" stroke-width="6"/>
<text class="species" transform="rotate(90 967.5,495)" x="952.5" y="470">
p0_31
</text>
<path d="M1065,490.5 L1065,352.5 L1008,352.5 M1050,490.5 L1050,367.5 L997.5,367.5" fill="none" opacity="0.9" stroke="pink" stroke-width="6"/>
<path d="M1050,490.5 L1050,510 L1065,510 L1065,490.5" fill="none" opacity="0.9" stroke="pink" stroke-width="6"/>
<text class="species" transform="rotate(90 1057.5,495)" x="1042.5" y="477.5">
p0_32
</text>
<path d="M1170,295.5 L1170,232.5 L1047.375,232.5 M1155,295.5 L1155,247.5 L1036.875,247.5" fill="none" opacity="0.9" stroke="pink" stroke-width="6"/>
<path d="M1125,490.5 L1125,292.5 L1152,292.5 M1140,490.5 L1140,307.5 L1162.5,307.5" fill="none" opacity="0.9" stroke="pink" stroke-width="6"/>
<path d="M1125,490.5 L1125,510 L1140,510 L1140,490.5" fill="none" opacity="0.9" stroke="pink" stroke-width="6"/>
<text class="species" transform="rotate(90 1132.5,495)" x="1117.5" y="477.5">
p0_34
</text>
<path d="M1207.5,483 L1207.5,292.5 L1173,292.5 M1177.5,483 L1177.5,307.5 L1162.5,307.5" fill="none" opacity="0.9" stroke="pink" stroke-width="6"/>
<path d="M1177.5,483 L1177.5,510 L1207.5,510 L1207.5,483" fill="none" opacity="0.9" stroke="pink" stroke-width="6"/>
<text class="species" transform="rotate(90 1192.5,495)" x="1177.5" y="470">
p0_35
</text>
<path d="M1350,235.5 L1350,172.5 L1200.1875,172.5 M1335,235.5 L1335,187.5 L1189.6875,187.5" fill="none" opacity="0.9" stroke="pink" stroke-width="6"/>
<path d="M1290,295.5 L1290,232.5 L1332,232.5 M1305,295.5 L1305,247.5 L1342.5,247.5" fill="none" opacity="0.9" stroke="pink" stroke-width="6"/>
<path d="M1260,490.5 L1260,292.5 L1287,292.5 M1275,490.5 L1275,307.5 L1297.5,307.5" fill="none" opacity="0.9" stroke="pink" stroke-width="6"/>
<path d="M1260,490.5 L1260,510 L1275,510 L1275,490.5" fill="none" opacity="0.9" stroke="pink" stroke-width="6"/>
<text class="species" transform="rotate(90 1267.5,495)" x="1252.5" y="477.5">
p0_38
</text>
<path d="M1335,490.5 L1335,292.5 L1308,292.5 M1320,490.5 L1320,307.5 L1297.5,307.5" fill="none" opacity="0.9" stroke="pink" stroke-width="6"/>
<path d="M1320,490.5 L1320,510 L1335,510 L1335,490.5" fill="none" opacity="0.9" stroke="pink" stroke-width="6"/>
<text class="species" transform="rotate(90 1327.5,495)" x="1312.5" y="477.5">
p0_39
</text>
<path d="M1395,490.5 L1395,232.5 L1353,232.5 M1380,490.5 L1380,247.5 L1342.5,247.5" fill="none" opacity="0.9" stroke="pink" stroke-width="6"/>
<path d="M1380,490.5 L1380,510 L1395,510 L1395,490.5" fill="none" opacity="0.9" stroke="pink" stroke-width="6"/>
<text class="species" transform="rotate(90 1387.5,495)" x="1372.5" y="477.5">
p0_40
</text>
<path d="M1620.9375,115.5 L1620.9375,52.5 L1189.6406,52.5 M1605.9375,115.5 L1605.9375,67.5 L1179.1406,67.5" fill="none" opacity="0.9" stroke="pink" stroke-width="6"/>
<path d="M1447.5,490.5 L1447.5,112.5 L1602.9375,112.5 M1462.5,490.5 L1462.5,127.5 L1613.4375,127.5" fill="none" opacity="0.9" stroke="pink" stroke-width="6"/>
<path d="M1447.5,490.5 L1447.5,510 L1462.5,510 L1462.5,490.5" fill="none" opacity="0.9" stroke="pink" stroke-width="6"/>
<text class="species" transform="rotate(90 1455,495)" x="1440" y="477.5">
p0_42
</text>
<path d="M1779.375,175.5 L1779.375,112.5 L1623.9375,112.5 M1764.375,175.5 L1764.375,127.5 L1613.4375,127.5" fill="none" opacity="0.9" stroke="pink" stroke-width="6"/>
<path d="M1646.25,235.5 L1646.25,172.5 L1761.375,172.5 M1661.25,235.5 L1661.25,187.5 L1771.875,187.5" fill="none" opacity="0.9" stroke="pink" stroke-width="6"/>
<path d="M1560,295.5 L1560,232.5 L1643.25,232.5 M1575,295.5 L1575,247.5 L1653.75,247.5" fill="none" opacity="0.9" stroke="pink" stroke-width="6"/>
<path d="M1530,490.5 L1530,292.5 L1557,292.5 M1545,490.5 L1545,307.5 L1567.5,307.5" fill="none" opacity="0.9" stroke="pink" stroke-width="6"/>
<path d="M1530,490.5 L1530,510 L1545,510 L1545,490.5" fill="none" opacity="0.9" stroke="pink" stroke-width="6"/>
<text class="species" transform="rotate(90 1537.5,495)" x="1522.5" y="477.5">
p0_46
</text>
<path d="M1605,490.5 L1605,292.5 L1578,292.5 M1590,490.5 L1590,307.5 L1567.5,307.5" fill="none" opacity="0.9" stroke="pink" stroke-width="6"/>
<path d="M1590,490.5 L1590,510 L1605,510 L1605,490.5" fill="none" opacity="0.9" stroke="pink" stroke-width="6"/>
<text class="species" transform="rotate(90 1597.5,495)" x="1582.5" y="477.5">
p0_47
</text>
<path d="M1755,288 L1755,232.5 L1664.25,232.5 M1725,288 L1725,247.5 L1653.75,247.5" fill="none" opacity="0.9" stroke="pink" stroke-width="6"/>
<path d="M1665,483 L1665,285 L1722,285 M1695,483 L1695,315 L1740,315" fill="none" opacity="0.9" stroke="pink" stroke-width="6"/>
<path d="M1665,483 L1665,510 L1695,510 L1695,483" fill="none" opacity="0.9" stroke="pink" stroke-width="6"/>
<text class="species" transform="rotate(90 1680,495)" x="1665" y="470">
p0_49
</text>
<path d="M1815,483 L1815,285 L1758,285 M1785,483 L1785,315 L1740,315" fill="none" opacity="0.9" stroke="pink" stroke-width="6"/>
<path d="M1785,483 L1785,510 L1815,510 L1815,483" fill="none" opacity="0.9" stroke="pink" stroke-width="6"/>
<text class="species" transform="rotate(90 1800,495)" x="1785" y="470">
p0_50
</text>
<path d="M1897.5,490.5 L1897.5,172.5 L1782.375,172.5 M1882.5,490.5 L1882.5,187.5 L1771.875,187.5" fill="none" opacity="0.9" stroke="pink" stroke-width="6"/>
<path d="M1882.5,490.5 L1882.5,510 L1897.5,510 L1897.5,490.5" fill="none" opacity="0.9" stroke="pink" stroke-width="6"/>
<text class="species" transform="rotate(90 1890,495)" x="1875" y="477.5">
p0_51
</text>
<path d="M1036.875,234 l-6,-6 l12,0 z" fill="rgb(98, 189, 219)" opacity="0.9" stroke="rgb(98, 189, 219)" stroke-width="1"/>
<circle cx="1036.875" cy="240" fill="rgb(98, 189, 219)" opacity="0.9" r="4.5" stroke="rgb(98, 189, 219)" stroke-width="1"/>
<path d="M911.25,300 L911.25,240 L1036.875,240" fill="none" opacity="0.9" stroke="rgb(98, 189, 219)" stroke-width="3"/>
<circle cx="911.25" cy="300" fill="rgb(98, 189, 219)" opacity="0.9" r="4.5" stroke="rgb(98, 189, 219)" stroke-width="1"/>
<path d="M825,510 L825,300 L911.25,300" fill="none" opacity="0.9" stroke="rgb(98, 189, 219)" stroke-width="3"/>
<path d="M819,510 a3,3,0,0,1,12,0 z" fill="rgb(98, 189, 219)" opacity="0.9" stroke="rgb(98, 189, 219)" stroke-width="1"/>
<text class="gene_0" transform="rotate(90 820,525)" x="820" y="525">
gl6
</text>
<path d="M997.5,360 L997.5,300 L911.25,300" fill="none" opacity="0.9" stroke="rgb(98, 189, 219)" stroke-width="3"/>
<circle cx="997.5" cy="360" fill="rgb(98, 189, 219)" opacity="0.9" r="4.5" stroke="rgb(98, 189, 219)" stroke-width="1"/>
<path d="M937.5,420 L937.5,360 L997.5,360" fill="none" opacity="0.9" stroke="rgb(98, 189, 219)" stroke-width="3"/>
<circle cx="937.5" cy="420" fill="rgb(98, 189, 219)" opacity="0.9" r="4.5" stroke="rgb(98, 189, 219)" stroke-width="1"/>
<path d="M907.5,510 L907.5,420 L937.5,420" fill="none" opacity="0.9" stroke="rgb(98, 189, 219)" stroke-width="3"/>
<path d="M901.5,510 a3,3,0,0,1,12,0 z" fill="rgb(98, 189, 219)" opacity="0.9" stroke="rgb(98, 189, 219)" stroke-width="1"/>
<text class="gene_0" transform="rotate(90 902.5,525)" x="902.5" y="525">
gl5
</text>
<path d="M975,510 L975,420 L937.5,420" fill="none" opacity="0.9" stroke="rgb(98, 189, 219)" stroke-width="3"/>
<path d="M969,510 a3,3,0,0,1,12,0 z" fill="rgb(98, 189, 219)" opacity="0.9" stroke="rgb(98, 189, 219)" stroke-width="1"/>
<text class="gene_0" transform="rotate(90 970,525)" x="970" y="525">
gl4
</text>
<path d="M1057.5,510 L1057.5,360 L997.5,360" fill="none" opacity="0.9" stroke="rgb(98, 189, 219)" stroke-width="3"/>
<path d="M1051.5,510 a3,3,0,0,1,12,0 z" fill="rgb(98, 189, 219)" opacity="0.9" stroke="rgb(98, 189, 219)" stroke-width="1"/>
<text class="gene_0" transform="rotate(90 1052.5,525)" x="1052.5" y="525">
gl3
</text>
<path d="M1162.5,300 L1162.5,240 L1036.875,240" fill="none" opacity="0.9" stroke="rgb(98, 189, 219)" stroke-width="3"/>
<circle cx="1162.5" cy="300" fill="rgb(98, 189, 219)" opacity="0.9" r="4.5" stroke="rgb(98, 189, 219)" stroke-width="1"/>
<path d="M1132.5,510 L1132.5,300 L1162.5,300" fill="none" opacity="0.9" stroke="rgb(98, 189, 219)" stroke-width="3"/>
<path d="M1126.5,510 a3,3,0,0,1,12,0 z" fill="rgb(98, 189, 219)" opacity="0.9" stroke="rgb(98, 189, 219)" stroke-width="1"/>
<text class="gene_0" transform="rotate(90 1127.5,525)" x="1127.5" y="525">
gl2
</text>
<path d="M1200,487.5 L1200,300 L1162.5,300" fill="none" opacity="0.9" stroke="rgb(98, 189, 219)" stroke-width="3"/>
<path d="M1197,484.5 l0,6 l6,0 l0,-6 z" fill="rgb(98, 189, 219)" opacity="0.9" stroke="rgb(98, 189, 219)" stroke-width="3" transform="rotate(45 1200 487.5)"/>
<path d="M960 510 L 960 495M960 506.25L 956.25 502.5M960 506.25L 963.75 502.5M960 495 Q 1080 431.25 1200 487.5" fill="none" opacity="0.9" stroke="rgb(98, 189, 219)" stroke-dasharray="1, 1" stroke-width="3"/>
<path d="M954,510 a3,3,0,0,1,12,0 z" fill="rgb(98, 189, 219)" opacity="0.9" stroke="rgb(98, 189, 219)" stroke-width="1"/>
<text class="gene_0" transform="rotate(90 955,525)" x="955" y="525">
gl0
</text>
<path d="M1185,510 L1185,487.5 L1200,487.5" fill="none" opacity="0.9" stroke="rgb(98, 189, 219)" stroke-width="3"/>
<path d="M1179,510 a3,3,0,0,1,12,0 z" fill="rgb(98, 189, 219)" opacity="0.9" stroke="rgb(98, 189, 219)" stroke-width="1"/>
<text class="gene_0" transform="rotate(90 1180,525)" x="1180" y="525">
gl1
</text>
<path d="M300,174 l-6,-6 l12,0 z" fill="rgb(155, 56, 209)" opacity="0.9" stroke="rgb(155, 56, 209)" stroke-width="1"/>
<circle cx="300" cy="180" fill="rgb(155, 56, 209)" opacity="0.9" r="4.5" stroke="rgb(155, 56, 209)" stroke-width="1"/>
<path d="M86.25,240 L86.25,180 L300,180" fill="none" opacity="0.9" stroke="rgb(155, 56, 209)" stroke-width="3"/>
<circle cx="86.25" cy="240" fill="rgb(155, 56, 209)" opacity="0.9" r="4.5" stroke="rgb(155, 56, 209)" stroke-width="1"/>
<path d="M30,300 L30,240 L86.25,240" fill="none" opacity="0.9" stroke="rgb(155, 56, 209)" stroke-width="3"/>
<circle cx="30" cy="300" fill="rgb(155, 56, 209)" opacity="0.9" r="4.5" stroke="rgb(155, 56, 209)" stroke-width="1"/>
<path d="M0,510 L0,300 L30,300" fill="none" opacity="0.9" stroke="rgb(155, 56, 209)" stroke-width="3"/>
<path d="M-6,510 a3,3,0,0,1,12,0 z" fill="rgb(155, 56, 209)" opacity="0.9" stroke="rgb(155, 56, 209)" stroke-width="1"/>
<text class="gene_1" transform="rotate(90 -5,525)" x="-5" y="525">
gl12
</text>
<path d="M60,510 L60,300 L30,300" fill="none" opacity="0.9" stroke="rgb(155, 56, 209)" stroke-width="3"/>
<path d="M54,510 a3,3,0,0,1,12,0 z" fill="rgb(155, 56, 209)" opacity="0.9" stroke="rgb(155, 56, 209)" stroke-width="1"/>
<text class="gene_1" transform="rotate(90 55,525)" x="55" y="525">
gl11
</text>
<path d="M142.5,510 L142.5,240 L86.25,240" fill="none" opacity="0.9" stroke="rgb(155, 56, 209)" stroke-width="3"/>
<path d="M136.5,510 a3,3,0,0,1,12,0 z" fill="rgb(155, 56, 209)" opacity="0.9" stroke="rgb(155, 56, 209)" stroke-width="1"/>
<text class="gene_1" transform="rotate(90 137.5,525)" x="137.5" y="525">
gl10
</text>
<path d="M513.75,240 L513.75,180 L300,180" fill="none" opacity="0.9" stroke="rgb(155, 56, 209)" stroke-width="3"/>
<circle cx="513.75" cy="240" fill="rgb(155, 56, 209)" opacity="0.9" r="4.5" stroke="rgb(155, 56, 209)" stroke-width="1"/>
<path d="M361.875,300 L361.875,240 L513.75,240" fill="none" opacity="0.9" stroke="rgb(155, 56, 209)" stroke-width="3"/>
<circle cx="361.875" cy="300" fill="rgb(155, 56, 209)" opacity="0.9" r="4.5" stroke="rgb(155, 56, 209)" stroke-width="1"/>
<path d="M273.75,360 L273.75,300 L361.875,300" fill="none" opacity="0.9" stroke="rgb(155, 56, 209)" stroke-width="3"/>
<circle cx="273.75" cy="360" fill="rgb(155, 56, 209)" opacity="0.9" r="4.5" stroke="rgb(155, 56, 209)" stroke-width="1"/>
<path d="M217.5,510 L217.5,360 L273.75,360" fill="none" opacity="0.9" stroke="rgb(155, 56, 209)" stroke-width="3"/>
<path d="M211.5,510 a3,3,0,0,1,12,0 z" fill="rgb(155, 56, 209)" opacity="0.9" stroke="rgb(155, 56, 209)" stroke-width="1"/>
<text class="gene_1" transform="rotate(90 212.5,525)" x="212.5" y="525">
gl9
</text>
<path d="M337.5,412.5 L337.5,360 L273.75,360" fill="none" opacity="0.9" stroke="rgb(155, 56, 209)" stroke-width="3"/>
<path d="M334.5,409.5 l0,6 l6,0 l0,-6 z" fill="rgb(155, 56, 209)" opacity="0.9" stroke="rgb(155, 56, 209)" stroke-width="3" transform="rotate(45 337.5 412.5)"/>
<path d="M1747.5 292.5 L 1747.5 277.5M1747.5 288.75L 1743.75 285M1747.5 288.75L 1751.25 285M1747.5 277.5 Q 1042.5 285 337.5 412.5" fill="none" opacity="0.9" stroke="rgb(155, 56, 209)" stroke-dasharray="1, 1" stroke-width="3"/>
<circle cx="1747.5" cy="292.5" fill="rgb(155, 56, 209)" opacity="0.9" r="4.5" stroke="rgb(155, 56, 209)" stroke-width="1"/>
<path d="M1672.5,510 L1672.5,292.5 L1747.5,292.5" fill="none" opacity="0.9" stroke="rgb(155, 56, 209)" stroke-width="3"/>
<path d="M1666.5,510 a3,3,0,0,1,12,0 z" fill="rgb(155, 56, 209)" opacity="0.9" stroke="rgb(155, 56, 209)" stroke-width="1"/>
<text class="gene_1" transform="rotate(90 1667.5,525)" x="1667.5" y="525">
gl6
</text>
<path d="M1807.5,510 L1807.5,292.5 L1747.5,292.5" fill="none" opacity="0.9" stroke="rgb(155, 56, 209)" stroke-width="3"/>
<path d="M1801.5,510 a3,3,0,0,1,12,0 z" fill="rgb(155, 56, 209)" opacity="0.9" stroke="rgb(155, 56, 209)" stroke-width="1"/>
<text class="gene_1" transform="rotate(90 1802.5,525)" x="1802.5" y="525">
gl5
</text>
<path d="M322.5,427.5 L322.5,412.5 L337.5,412.5" fill="none" opacity="0.9" stroke="rgb(155, 56, 209)" stroke-width="3"/>
<circle cx="322.5" cy="427.5" fill="rgb(155, 56, 209)" opacity="0.9" r="4.5" stroke="rgb(155, 56, 209)" stroke-width="1"/>
<path d="M300,510 L300,427.5 L322.5,427.5" fill="none" opacity="0.9" stroke="rgb(155, 56, 209)" stroke-width="3"/>
<path d="M294,510 a3,3,0,0,1,12,0 z" fill="rgb(155, 56, 209)" opacity="0.9" stroke="rgb(155, 56, 209)" stroke-width="1"/>
<text class="gene_1" transform="rotate(90 295,525)" x="295" y="525">
gl8
</text>
<path d="M360,510 L360,427.5 L322.5,427.5" fill="none" opacity="0.9" stroke="rgb(155, 56, 209)" stroke-width="3"/>
<path d="M354,510 a3,3,0,0,1,12,0 z" fill="rgb(155, 56, 209)" opacity="0.9" stroke="rgb(155, 56, 209)" stroke-width="1"/>
<text class="gene_1" transform="rotate(90 355,525)" x="355" y="525">
gl7
</text>
<path d="M450,510 L450,300 L361.875,300" fill="none" opacity="0.9" stroke="rgb(155, 56, 209)" stroke-width="3"/>
<path d="M444,510 a3,3,0,0,1,12,0 z" fill="rgb(155, 56, 209)" opacity="0.9" stroke="rgb(155, 56, 209)" stroke-width="1"/>
<text class="gene_1" transform="rotate(90 445,525)" x="445" y="525">
gl4
</text>
<path d="M665.625,300 L665.625,240 L513.75,240" fill="none" opacity="0.9" stroke="rgb(155, 56, 209)" stroke-width="3"/>
<circle cx="665.625" cy="300" fill="rgb(155, 56, 209)" opacity="0.9" r="4.5" stroke="rgb(155, 56, 209)" stroke-width="1"/>
<path d="M581.25,360 L581.25,300 L665.625,300" fill="none" opacity="0.9" stroke="rgb(155, 56, 209)" stroke-width="3"/>
<circle cx="581.25" cy="360" fill="rgb(155, 56, 209)" opacity="0.9" r="4.5" stroke="rgb(155, 56, 209)" stroke-width="1"/>
<path d="M525,510 L525,360 L581.25,360" fill="none" opacity="0.9" stroke="rgb(155, 56, 209)" stroke-width="3"/>
<path d="M519,510 a3,3,0,0,1,12,0 z" fill="rgb(155, 56, 209)" opacity="0.9" stroke="rgb(155, 56, 209)" stroke-width="1"/>
<text class="gene_1" transform="rotate(90 520,525)" x="520" y="525">
gl3
</text>
<path d="M637.5,420 L637.5,360 L581.25,360" fill="none" opacity="0.9" stroke="rgb(155, 56, 209)" stroke-width="3"/>
<circle cx="637.5" cy="420" fill="rgb(155, 56, 209)" opacity="0.9" r="4.5" stroke="rgb(155, 56, 209)" stroke-width="1"/>
<path d="M607.5,510 L607.5,420 L637.5,420" fill="none" opacity="0.9" stroke="rgb(155, 56, 209)" stroke-width="3"/>
<path d="M601.5,510 a3,3,0,0,1,12,0 z" fill="rgb(155, 56, 209)" opacity="0.9" stroke="rgb(155, 56, 209)" stroke-width="1"/>
<text class="gene_1" transform="rotate(90 602.5,525)" x="602.5" y="525">
gl2
</text>
<path d="M667.5,510 L667.5,420 L637.5,420" fill="none" opacity="0.9" stroke="rgb(155, 56, 209)" stroke-width="3"/>
<path d="M661.5,510 a3,3,0,0,1,12,0 z" fill="rgb(155, 56, 209)" opacity="0.9" stroke="rgb(155, 56, 209)" stroke-width="1"/>
<text class="gene_1" transform="rotate(90 662.5,525)" x="662.5" y="525">
gl1
</text>
<path d="M750,510 L750,300 L665.625,300" fill="none" opacity="0.9" stroke="rgb(155, 56, 209)" stroke-width="3"/>
<path d="M744,510 a3,3,0,0,1,12,0 z" fill="rgb(155, 56, 209)" opacity="0.9" stroke="rgb(155, 56, 209)" stroke-width="1"/>
<text class="gene_1" transform="rotate(90 745,525)" x="745" y="525">
gl0
</text>
<path d="M1613.4375,114 l-6,-6 l12,0 z" fill="rgb(49, 224, 98)" opacity="0.9" stroke="rgb(49, 224, 98)" stroke-width="1"/>
<circle cx="1613.4375" cy="120" fill="rgb(49, 224, 98)" opacity="0.9" r="4.5" stroke="rgb(49, 224, 98)" stroke-width="1"/>
<path d="M1455,510 L1455,120 L1613.4375,120" fill="none" opacity="0.9" stroke="rgb(49, 224, 98)" stroke-width="3"/>
<path d="M1449,510 a3,3,0,0,1,12,0 z" fill="rgb(49, 224, 98)" opacity="0.9" stroke="rgb(49, 224, 98)" stroke-width="1"/>
<text class="gene_2" transform="rotate(90 1450,525)" x="1450" y="525">
gl5
</text>
<path d="M1771.875,180 L1771.875,120 L1613.4375,120" fill="none" opacity="0.9" stroke="rgb(49, 224, 98)" stroke-width="3"/>
<circle cx="1771.875" cy="180" fill="rgb(49, 224, 98)" opacity="0.9" r="4.5" stroke="rgb(49, 224, 98)" stroke-width="1"/>
<path d="M1653.75,240 L1653.75,180 L1771.875,180" fill="none" opacity="0.9" stroke="rgb(49, 224, 98)" stroke-width="3"/>
<circle cx="1653.75" cy="240" fill="rgb(49, 224, 98)" opacity="0.9" r="4.5" stroke="rgb(49, 224, 98)" stroke-width="1"/>
<path d="M1567.5,300 L1567.5,240 L1653.75,240" fill="none" opacity="0.9" stroke="rgb(49, 224, 98)" stroke-width="3"/>
<circle cx="1567.5" cy="300" fill="rgb(49, 224, 98)" opacity="0.9" r="4.5" stroke="rgb(49, 224, 98)" stroke-width="1"/>
<path d="M1537.5,510 L1537.5,300 L1567.5,300" fill="none" opacity="0.9" stroke="rgb(49, 224, 98)" stroke-width="3"/>
<path d="M1531.5,510 a3,3,0,0,1,12,0 z" fill="rgb(49, 224, 98)" opacity="0.9" stroke="rgb(49, 224, 98)" stroke-width="1"/>
<text class="gene_2" transform="rotate(90 1532.5,525)" x="1532.5" y="525">
gl4
</text>
<path d="M1597.5,510 L1597.5,300 L1567.5,300" fill="none" opacity="0.9" stroke="rgb(49, 224, 98)" stroke-width="3"/>
<path d="M1591.5,510 a3,3,0,0,1,12,0 z" fill="rgb(49, 224, 98)" opacity="0.9" stroke="rgb(49, 224, 98)" stroke-width="1"/>
<text class="gene_2" transform="rotate(90 1592.5,525)" x="1592.5" y="525">
gl3
</text>
<path d="M1732.5,307.5 L1732.5,240 L1653.75,240" fill="none" opacity="0.9" stroke="rgb(49, 224, 98)" stroke-width="3"/>
<circle cx="1732.5" cy="307.5" fill="rgb(49, 224, 98)" opacity="0.9" r="4.5" stroke="rgb(49, 224, 98)" stroke-width="1"/>
<path d="M1687.5,510 L1687.5,307.5 L1732.5,307.5" fill="none" opacity="0.9" stroke="rgb(49, 224, 98)" stroke-width="3"/>
<path d="M1681.5,510 a3,3,0,0,1,12,0 z" fill="rgb(49, 224, 98)" opacity="0.9" stroke="rgb(49, 224, 98)" stroke-width="1"/>
<text class="gene_2" transform="rotate(90 1682.5,525)" x="1682.5" y="525">
gl2
</text>
<path d="M1792.5,510 L1792.5,307.5 L1732.5,307.5" fill="none" opacity="0.9" stroke="rgb(49, 224, 98)" stroke-width="3"/>
<path d="M1786.5,510 a3,3,0,0,1,12,0 z" fill="rgb(49, 224, 98)" opacity="0.9" stroke="rgb(49, 224, 98)" stroke-width="1"/>
<text class="gene_2" transform="rotate(90 1787.5,525)" x="1787.5" y="525">
gl1
</text>
<path d="M1890,510 L1890,180 L1771.875,180" fill="none" opacity="0.9" stroke="rgb(49, 224, 98)" stroke-width="3"/>
<path d="M1884,510 a3,3,0,0,1,12,0 z" fill="rgb(49, 224, 98)" opacity="0.9" stroke="rgb(49, 224, 98)" stroke-width="1"/>
<text class="gene_2" transform="rotate(90 1885,525)" x="1885" y="525">
gl0
</text>
</g>
</svg>